<?xml version="1.0" encoding="UTF-8"?>
<svg id="Laag_1" data-name="Laag 1" xmlns="http://www.w3.org/2000/svg" viewBox="0 0 939.78 311.55">
  <defs>
    <style>
      .cls-1 {
        fill: #f70066;
      }

      .cls-2 {
        fill: lime;
      }

      .cls-3 {
        fill: #00c000;
      }

      .cls-4 {
        fill: #fff;
      }

      .cls-5 {
        fill: #c60062;
      }

      .cls-6 {
        fill: #df0064;
      }

      .cls-7 {
        fill: #74f000;
      }
    </style>
  </defs>
  <ellipse class="cls-1" cx="34.82" cy="252.24" rx="32.74" ry="58.89" transform="translate(-60.05 15.94) rotate(-14.01)"/>
  <ellipse class="cls-6" cx="40.84" cy="250.74" rx="26.54" ry="54.72" transform="translate(-59.5 17.35) rotate(-14.01)"/>
  <path class="cls-5" d="M93.33,238.04l-5.34-13.71c-.94,.24-17.16,4.28-17.16,4.28,0,0-5.57,1.25-11.03-1.84-1.78-3.32-3.73-6.25-5.79-8.72-5.2-6.22-11.04-9.42-16.28-8.11-10.48,2.62-14.6,22.26-9.21,43.87,5.39,21.61,18.26,37.01,28.74,34.4,7.12-1.78,11.3-11.4,11.56-24.16,3.34-5.55,9.07-7.12,9.07-7.12,0,0,16.22-4.05,17.16-4.28l-1.73-14.61Z"/>
  <ellipse class="cls-1" cx="117.49" cy="231.61" rx="34.67" ry="58.89" transform="translate(-52.59 35.34) rotate(-14.01)"/>
  <path class="cls-6" d="M858.53,47.06c-7.32-29.32-24.78-50.22-39-46.67L184.28,158.94l-72.05,17.98c-14.22,3.55-19.81,30.2-12.49,59.52,7.32,29.32,24.78,50.22,39,46.67l72.05-17.98L846.04,106.58c14.22-3.55,19.81-30.2,12.5-59.52Z"/>
  <polygon class="cls-2" points="849.8 70.64 849.8 70.64 849.8 70.64 849.8 70.64"/>
  <path class="cls-7" d="M839.71,51.76c-5.21-20.87-17.64-35.74-27.76-33.22L502.27,95.83h0L129.71,188.82c-11.89,2.97-17.3,22.29-12.09,43.16,5.21,20.87,19.07,35.39,30.95,32.42l372.56-92.98h0s309.69-77.29,309.69-77.29c10.12-2.53,14.1-21.49,8.89-42.37Z"/>
  <circle class="cls-3" cx="792.54" cy="40.64" r="8.12"/>
  <circle class="cls-3" cx="776.37" cy="56.04" r="3.83"/>
  <path class="cls-3" d="M839.71,51.76c-.53-2.12-1.14-4.17-1.8-6.15,3.03,18.27-1.1,33.82-10.19,36.09l-62.24,15.53L142.28,252.76c-9.09,2.27-20.05-9.51-25.96-27.06,.34,2.06,.77,4.16,1.3,6.28,5.21,20.87,17.64,35.74,27.76,33.22L768.58,109.66l62.24-15.53c10.12-2.53,14.1-21.49,8.89-42.37Z"/>
  <circle class="cls-3" cx="139.29" cy="207.69" r="8.12"/>
  <circle class="cls-3" cx="155.92" cy="220.27" r="3.02"/>
  <g>
    <ellipse class="cls-6" cx="855.29" cy="43.84" rx="11.42" ry="17.98" transform="translate(13.66 202.25) rotate(-13.59)"/>
    <ellipse class="cls-6" cx="855.68" cy="43.74" rx="11.39" ry="17.93" transform="translate(13.69 202.34) rotate(-13.59)"/>
    <ellipse class="cls-6" cx="856.08" cy="43.64" rx="11.36" ry="17.87" transform="translate(13.73 202.43) rotate(-13.59)"/>
    <ellipse class="cls-6" cx="856.48" cy="43.54" rx="11.32" ry="17.82" transform="translate(13.76 202.52) rotate(-13.59)"/>
    <ellipse class="cls-6" cx="856.87" cy="43.44" rx="11.29" ry="17.77" transform="translate(13.79 202.61) rotate(-13.59)"/>
    <ellipse class="cls-6" cx="857.27" cy="43.34" rx="11.26" ry="17.72" transform="translate(13.83 202.7) rotate(-13.59)"/>
    <ellipse class="cls-6" cx="857.66" cy="43.24" rx="11.22" ry="17.66" transform="translate(13.86 202.79) rotate(-13.59)"/>
    <ellipse class="cls-6" cx="858.06" cy="43.14" rx="11.19" ry="17.61" transform="translate(13.9 202.88) rotate(-13.59)"/>
    <ellipse class="cls-6" cx="858.46" cy="43.04" rx="11.16" ry="17.56" transform="translate(13.93 202.97) rotate(-13.59)"/>
    <ellipse class="cls-6" cx="858.85" cy="42.94" rx="11.12" ry="17.51" transform="translate(13.97 203.06) rotate(-13.59)"/>
    <ellipse class="cls-6" cx="859.25" cy="42.83" rx="11.09" ry="17.45" transform="translate(14 203.15) rotate(-13.59)"/>
    <ellipse class="cls-6" cx="859.64" cy="42.73" rx="11.06" ry="17.4" transform="translate(14.04 203.24) rotate(-13.59)"/>
    <ellipse class="cls-6" cx="860.04" cy="42.63" rx="11.02" ry="17.35" transform="translate(14.07 203.33) rotate(-13.59)"/>
    <ellipse class="cls-6" cx="860.44" cy="42.53" rx="10.99" ry="17.3" transform="translate(14.11 203.42) rotate(-13.59)"/>
    <ellipse class="cls-6" cx="860.83" cy="42.43" rx="10.95" ry="17.24" transform="translate(14.14 203.51) rotate(-13.59)"/>
    <ellipse class="cls-6" cx="861.23" cy="42.33" rx="10.92" ry="17.19" transform="translate(14.18 203.61) rotate(-13.59)"/>
    <ellipse class="cls-6" cx="861.62" cy="42.23" rx="10.89" ry="17.14" transform="translate(14.21 203.7) rotate(-13.59)"/>
    <ellipse class="cls-6" cx="862.02" cy="42.13" rx="10.85" ry="17.08" transform="translate(14.25 203.79) rotate(-13.59)"/>
    <ellipse class="cls-6" cx="862.41" cy="42.03" rx="10.82" ry="17.03" transform="translate(14.28 203.88) rotate(-13.59)"/>
    <ellipse class="cls-6" cx="862.81" cy="41.93" rx="10.79" ry="16.98" transform="translate(14.31 203.97) rotate(-13.59)"/>
    <ellipse class="cls-6" cx="863.21" cy="41.83" rx="10.75" ry="16.93" transform="translate(14.35 204.06) rotate(-13.59)"/>
    <ellipse class="cls-6" cx="863.6" cy="41.73" rx="10.72" ry="16.87" transform="translate(14.38 204.15) rotate(-13.59)"/>
    <ellipse class="cls-6" cx="864" cy="41.63" rx="10.69" ry="16.82" transform="translate(14.42 204.24) rotate(-13.59)"/>
    <ellipse class="cls-6" cx="864.39" cy="41.53" rx="10.65" ry="16.77" transform="translate(14.45 204.33) rotate(-13.59)"/>
    <ellipse class="cls-6" cx="864.79" cy="41.43" rx="10.62" ry="16.72" transform="translate(14.49 204.42) rotate(-13.59)"/>
    <ellipse class="cls-6" cx="865.19" cy="41.33" rx="10.59" ry="16.66" transform="translate(14.52 204.51) rotate(-13.59)"/>
    <ellipse class="cls-6" cx="865.58" cy="41.23" rx="10.55" ry="16.61" transform="translate(14.56 204.6) rotate(-13.59)"/>
    <ellipse class="cls-6" cx="865.98" cy="41.13" rx="10.52" ry="16.56" transform="translate(14.59 204.69) rotate(-13.59)"/>
    <ellipse class="cls-6" cx="866.37" cy="41.03" rx="10.49" ry="16.51" transform="translate(14.63 204.78) rotate(-13.59)"/>
    <ellipse class="cls-6" cx="866.77" cy="40.93" rx="10.45" ry="16.45" transform="translate(14.66 204.87) rotate(-13.59)"/>
    <ellipse class="cls-6" cx="867.17" cy="40.83" rx="10.42" ry="16.4" transform="translate(14.7 204.96) rotate(-13.59)"/>
    <ellipse class="cls-6" cx="867.56" cy="40.73" rx="10.39" ry="16.35" transform="translate(14.73 205.05) rotate(-13.59)"/>
    <ellipse class="cls-6" cx="867.96" cy="40.63" rx="10.35" ry="16.3" transform="translate(14.77 205.14) rotate(-13.59)"/>
    <ellipse class="cls-6" cx="868.35" cy="40.53" rx="10.32" ry="16.24" transform="translate(14.8 205.23) rotate(-13.59)"/>
    <ellipse class="cls-6" cx="868.75" cy="40.42" rx="10.29" ry="16.19" transform="translate(14.84 205.32) rotate(-13.59)"/>
    <ellipse class="cls-6" cx="869.15" cy="40.32" rx="10.25" ry="16.14" transform="translate(14.87 205.41) rotate(-13.59)"/>
    <ellipse class="cls-6" cx="869.54" cy="40.22" rx="10.22" ry="16.09" transform="translate(14.9 205.5) rotate(-13.59)"/>
    <ellipse class="cls-6" cx="869.94" cy="40.12" rx="10.19" ry="16.03" transform="translate(14.94 205.59) rotate(-13.59)"/>
    <ellipse class="cls-6" cx="870.33" cy="40.02" rx="10.15" ry="15.98" transform="translate(14.97 205.68) rotate(-13.59)"/>
    <ellipse class="cls-6" cx="870.73" cy="39.92" rx="10.12" ry="15.93" transform="translate(15.01 205.77) rotate(-13.59)"/>
    <ellipse class="cls-6" cx="871.13" cy="39.82" rx="10.09" ry="15.88" transform="translate(15.04 205.86) rotate(-13.59)"/>
    <ellipse class="cls-6" cx="871.52" cy="39.72" rx="10.05" ry="15.82" transform="translate(15.08 205.95) rotate(-13.59)"/>
    <ellipse class="cls-6" cx="871.92" cy="39.62" rx="10.02" ry="15.77" transform="translate(15.11 206.04) rotate(-13.59)"/>
    <ellipse class="cls-6" cx="872.31" cy="39.52" rx="9.99" ry="15.72" transform="translate(15.15 206.13) rotate(-13.59)"/>
    <ellipse class="cls-6" cx="872.71" cy="39.42" rx="9.95" ry="15.67" transform="translate(15.18 206.22) rotate(-13.59)"/>
    <ellipse class="cls-6" cx="873.11" cy="39.32" rx="9.92" ry="15.61" transform="translate(15.22 206.31) rotate(-13.59)"/>
    <ellipse class="cls-6" cx="873.5" cy="39.22" rx="9.89" ry="15.56" transform="translate(15.25 206.4) rotate(-13.59)"/>
    <ellipse class="cls-6" cx="873.9" cy="39.12" rx="9.85" ry="15.51" transform="translate(15.29 206.49) rotate(-13.59)"/>
    <ellipse class="cls-6" cx="874.29" cy="39.02" rx="9.82" ry="15.46" transform="translate(15.32 206.58) rotate(-13.59)"/>
    <ellipse class="cls-6" cx="874.69" cy="38.92" rx="9.79" ry="15.4" transform="translate(15.36 206.67) rotate(-13.59)"/>
    <ellipse class="cls-6" cx="875.09" cy="38.82" rx="9.75" ry="15.35" transform="translate(15.39 206.76) rotate(-13.59)"/>
    <ellipse class="cls-6" cx="875.48" cy="38.72" rx="9.72" ry="15.3" transform="translate(15.43 206.85) rotate(-13.59)"/>
    <ellipse class="cls-6" cx="875.88" cy="38.62" rx="9.69" ry="15.25" transform="translate(15.46 206.94) rotate(-13.59)"/>
    <ellipse class="cls-6" cx="876.27" cy="38.52" rx="9.65" ry="15.19" transform="translate(15.49 207.03) rotate(-13.59)"/>
    <ellipse class="cls-6" cx="876.67" cy="38.42" rx="9.62" ry="15.14" transform="translate(15.53 207.13) rotate(-13.59)"/>
    <ellipse class="cls-6" cx="877.07" cy="38.32" rx="9.59" ry="15.09" transform="translate(15.56 207.22) rotate(-13.59)"/>
    <ellipse class="cls-6" cx="877.46" cy="38.22" rx="9.55" ry="15.04" transform="translate(15.6 207.31) rotate(-13.59)"/>
    <ellipse class="cls-6" cx="877.86" cy="38.12" rx="9.52" ry="14.98" transform="translate(15.63 207.4) rotate(-13.59)"/>
    <ellipse class="cls-6" cx="878.25" cy="38.01" rx="9.49" ry="14.93" transform="translate(15.67 207.49) rotate(-13.59)"/>
    <ellipse class="cls-6" cx="878.65" cy="37.91" rx="9.45" ry="14.88" transform="translate(15.7 207.58) rotate(-13.59)"/>
    <ellipse class="cls-6" cx="879.05" cy="37.81" rx="9.42" ry="14.83" transform="translate(15.74 207.67) rotate(-13.59)"/>
    <ellipse class="cls-6" cx="879.44" cy="37.71" rx="9.39" ry="14.77" transform="translate(15.77 207.76) rotate(-13.59)"/>
    <ellipse class="cls-6" cx="879.84" cy="37.61" rx="9.35" ry="14.72" transform="translate(15.81 207.85) rotate(-13.59)"/>
    <ellipse class="cls-6" cx="880.23" cy="37.51" rx="9.32" ry="14.67" transform="translate(15.84 207.94) rotate(-13.59)"/>
    <ellipse class="cls-6" cx="880.63" cy="37.41" rx="9.29" ry="14.62" transform="translate(15.88 208.03) rotate(-13.59)"/>
    <ellipse class="cls-6" cx="881.03" cy="37.31" rx="9.25" ry="14.56" transform="translate(15.91 208.12) rotate(-13.59)"/>
    <ellipse class="cls-6" cx="881.42" cy="37.21" rx="9.22" ry="14.51" transform="translate(15.95 208.21) rotate(-13.59)"/>
    <ellipse class="cls-6" cx="881.82" cy="37.11" rx="9.19" ry="14.46" transform="translate(15.98 208.3) rotate(-13.59)"/>
    <ellipse class="cls-6" cx="882.21" cy="37.01" rx="9.15" ry="14.41" transform="translate(16.01 208.39) rotate(-13.59)"/>
    <ellipse class="cls-6" cx="882.61" cy="36.91" rx="9.12" ry="14.35" transform="translate(16.05 208.48) rotate(-13.59)"/>
    <ellipse class="cls-6" cx="883.01" cy="36.81" rx="9.09" ry="14.3" transform="translate(16.08 208.57) rotate(-13.59)"/>
    <ellipse class="cls-6" cx="883.4" cy="36.71" rx="9.05" ry="14.25" transform="translate(16.12 208.66) rotate(-13.59)"/>
    <ellipse class="cls-6" cx="883.8" cy="36.61" rx="9.02" ry="14.2" transform="translate(16.15 208.75) rotate(-13.59)"/>
    <ellipse class="cls-6" cx="884.19" cy="36.51" rx="8.99" ry="14.14" transform="translate(16.19 208.84) rotate(-13.59)"/>
    <ellipse class="cls-6" cx="884.59" cy="36.41" rx="8.95" ry="14.09" transform="translate(16.22 208.93) rotate(-13.59)"/>
    <ellipse class="cls-6" cx="884.99" cy="36.31" rx="8.92" ry="14.04" transform="translate(16.26 209.02) rotate(-13.59)"/>
    <ellipse class="cls-6" cx="885.38" cy="36.21" rx="8.89" ry="13.99" transform="translate(16.29 209.11) rotate(-13.59)"/>
    <ellipse class="cls-6" cx="885.78" cy="36.11" rx="8.85" ry="13.93" transform="translate(16.33 209.2) rotate(-13.59)"/>
    <ellipse class="cls-6" cx="886.17" cy="36.01" rx="8.82" ry="13.88" transform="translate(16.36 209.29) rotate(-13.59)"/>
    <ellipse class="cls-6" cx="886.57" cy="35.91" rx="8.79" ry="13.83" transform="translate(16.4 209.38) rotate(-13.59)"/>
    <ellipse class="cls-6" cx="886.97" cy="35.81" rx="8.75" ry="13.78" transform="translate(16.43 209.47) rotate(-13.59)"/>
    <ellipse class="cls-6" cx="887.36" cy="35.71" rx="8.72" ry="13.72" transform="translate(16.47 209.56) rotate(-13.59)"/>
    <ellipse class="cls-6" cx="887.76" cy="35.6" rx="8.69" ry="13.67" transform="translate(16.5 209.65) rotate(-13.59)"/>
    <ellipse class="cls-6" cx="888.15" cy="35.5" rx="8.65" ry="13.62" transform="translate(16.54 209.74) rotate(-13.59)"/>
    <ellipse class="cls-6" cx="888.55" cy="35.4" rx="8.62" ry="13.56" transform="translate(16.57 209.83) rotate(-13.59)"/>
    <ellipse class="cls-6" cx="888.95" cy="35.3" rx="8.59" ry="13.51" transform="translate(16.6 209.92) rotate(-13.59)"/>
    <ellipse class="cls-6" cx="889.34" cy="35.2" rx="8.55" ry="13.46" transform="translate(16.64 210.01) rotate(-13.59)"/>
    <ellipse class="cls-6" cx="889.74" cy="35.1" rx="8.52" ry="13.41" transform="translate(16.67 210.1) rotate(-13.59)"/>
    <ellipse class="cls-6" cx="890.13" cy="35" rx="8.48" ry="13.35" transform="translate(16.71 210.19) rotate(-13.59)"/>
    <ellipse class="cls-6" cx="890.53" cy="34.9" rx="8.45" ry="13.3" transform="translate(16.74 210.28) rotate(-13.59)"/>
    <ellipse class="cls-6" cx="890.93" cy="34.8" rx="8.42" ry="13.25" transform="translate(16.78 210.37) rotate(-13.59)"/>
    <ellipse class="cls-6" cx="891.32" cy="34.7" rx="8.38" ry="13.2" transform="translate(16.81 210.46) rotate(-13.59)"/>
    <ellipse class="cls-6" cx="891.72" cy="34.6" rx="8.35" ry="13.14" transform="translate(16.85 210.55) rotate(-13.59)"/>
    <ellipse class="cls-6" cx="892.11" cy="34.5" rx="8.32" ry="13.09" transform="translate(16.88 210.65) rotate(-13.59)"/>
    <ellipse class="cls-6" cx="892.51" cy="34.4" rx="8.28" ry="13.04" transform="translate(16.92 210.74) rotate(-13.59)"/>
    <ellipse class="cls-6" cx="892.91" cy="34.3" rx="8.25" ry="12.99" transform="translate(16.95 210.83) rotate(-13.59)"/>
    <ellipse class="cls-6" cx="893.3" cy="34.2" rx="8.22" ry="12.93" transform="translate(16.99 210.92) rotate(-13.59)"/>
    <ellipse class="cls-6" cx="893.7" cy="34.1" rx="8.18" ry="12.88" transform="translate(17.02 211.01) rotate(-13.59)"/>
    <ellipse class="cls-6" cx="894.09" cy="34" rx="8.15" ry="12.83" transform="translate(17.06 211.1) rotate(-13.59)"/>
    <ellipse class="cls-6" cx="894.49" cy="33.9" rx="8.12" ry="12.78" transform="translate(17.09 211.19) rotate(-13.59)"/>
    <ellipse class="cls-6" cx="894.88" cy="33.8" rx="8.08" ry="12.72" transform="translate(17.13 211.28) rotate(-13.59)"/>
    <ellipse class="cls-6" cx="895.28" cy="33.7" rx="8.05" ry="12.67" transform="translate(17.16 211.37) rotate(-13.59)"/>
    <ellipse class="cls-6" cx="895.68" cy="33.6" rx="8.02" ry="12.62" transform="translate(17.19 211.46) rotate(-13.59)"/>
    <ellipse class="cls-6" cx="896.07" cy="33.5" rx="7.98" ry="12.57" transform="translate(17.23 211.55) rotate(-13.59)"/>
    <ellipse class="cls-6" cx="896.47" cy="33.4" rx="7.95" ry="12.51" transform="translate(17.26 211.64) rotate(-13.59)"/>
    <ellipse class="cls-6" cx="896.86" cy="33.29" rx="7.92" ry="12.46" transform="translate(17.3 211.73) rotate(-13.59)"/>
    <ellipse class="cls-6" cx="897.26" cy="33.19" rx="7.88" ry="12.41" transform="translate(17.33 211.82) rotate(-13.59)"/>
    <ellipse class="cls-6" cx="897.66" cy="33.09" rx="7.85" ry="12.36" transform="translate(17.37 211.91) rotate(-13.59)"/>
    <ellipse class="cls-6" cx="898.05" cy="32.99" rx="7.82" ry="12.3" transform="translate(17.4 212) rotate(-13.59)"/>
    <ellipse class="cls-6" cx="898.45" cy="32.89" rx="7.78" ry="12.25" transform="translate(17.44 212.09) rotate(-13.59)"/>
    <ellipse class="cls-6" cx="898.84" cy="32.79" rx="7.75" ry="12.2" transform="translate(17.47 212.18) rotate(-13.59)"/>
    <ellipse class="cls-6" cx="899.24" cy="32.69" rx="7.72" ry="12.15" transform="translate(17.51 212.27) rotate(-13.59)"/>
    <ellipse class="cls-6" cx="899.64" cy="32.59" rx="7.68" ry="12.09" transform="translate(17.54 212.36) rotate(-13.59)"/>
    <ellipse class="cls-6" cx="900.03" cy="32.49" rx="7.65" ry="12.04" transform="translate(17.58 212.45) rotate(-13.59)"/>
    <ellipse class="cls-6" cx="900.43" cy="32.39" rx="7.62" ry="11.99" transform="translate(17.61 212.54) rotate(-13.59)"/>
    <ellipse class="cls-6" cx="900.82" cy="32.29" rx="7.58" ry="11.94" transform="translate(17.65 212.63) rotate(-13.59)"/>
    <ellipse class="cls-6" cx="901.22" cy="32.19" rx="7.55" ry="11.88" transform="translate(17.68 212.72) rotate(-13.59)"/>
    <ellipse class="cls-6" cx="901.62" cy="32.09" rx="7.52" ry="11.83" transform="translate(17.72 212.81) rotate(-13.59)"/>
    <ellipse class="cls-6" cx="902.01" cy="31.99" rx="7.48" ry="11.78" transform="translate(17.75 212.9) rotate(-13.59)"/>
    <ellipse class="cls-6" cx="902.41" cy="31.89" rx="7.45" ry="11.73" transform="translate(17.78 212.99) rotate(-13.59)"/>
    <ellipse class="cls-6" cx="902.8" cy="31.79" rx="7.42" ry="11.67" transform="translate(17.82 213.08) rotate(-13.59)"/>
    <ellipse class="cls-6" cx="903.2" cy="31.69" rx="7.38" ry="11.62" transform="translate(17.85 213.17) rotate(-13.59)"/>
    <ellipse class="cls-6" cx="903.6" cy="31.59" rx="7.35" ry="11.57" transform="translate(17.89 213.26) rotate(-13.59)"/>
    <ellipse class="cls-6" cx="903.99" cy="31.49" rx="7.32" ry="11.52" transform="translate(17.92 213.35) rotate(-13.59)"/>
    <ellipse class="cls-6" cx="904.39" cy="31.39" rx="7.28" ry="11.46" transform="translate(17.96 213.44) rotate(-13.59)"/>
    <ellipse class="cls-6" cx="904.78" cy="31.29" rx="7.25" ry="11.41" transform="translate(17.99 213.53) rotate(-13.59)"/>
    <ellipse class="cls-6" cx="905.18" cy="31.19" rx="7.22" ry="11.36" transform="translate(18.03 213.62) rotate(-13.59)"/>
    <ellipse class="cls-6" cx="905.58" cy="31.09" rx="7.18" ry="11.31" transform="translate(18.06 213.71) rotate(-13.59)"/>
    <ellipse class="cls-6" cx="905.97" cy="30.99" rx="7.15" ry="11.25" transform="translate(18.1 213.8) rotate(-13.59)"/>
    <ellipse class="cls-6" cx="906.37" cy="30.88" rx="7.12" ry="11.2" transform="translate(18.13 213.89) rotate(-13.59)"/>
    <ellipse class="cls-6" cx="906.76" cy="30.78" rx="7.08" ry="11.15" transform="translate(18.17 213.98) rotate(-13.59)"/>
    <ellipse class="cls-6" cx="907.16" cy="30.68" rx="7.05" ry="11.1" transform="translate(18.2 214.07) rotate(-13.59)"/>
    <ellipse class="cls-6" cx="907.56" cy="30.58" rx="7.02" ry="11.04" transform="translate(18.24 214.17) rotate(-13.59)"/>
    <ellipse class="cls-6" cx="907.95" cy="30.48" rx="6.98" ry="10.99" transform="translate(18.27 214.26) rotate(-13.59)"/>
    <ellipse class="cls-6" cx="908.35" cy="30.38" rx="6.95" ry="10.94" transform="translate(18.3 214.35) rotate(-13.59)"/>
    <ellipse class="cls-6" cx="908.74" cy="30.28" rx="6.92" ry="10.89" transform="translate(18.34 214.44) rotate(-13.59)"/>
    <ellipse class="cls-6" cx="909.14" cy="30.18" rx="6.88" ry="10.83" transform="translate(18.37 214.53) rotate(-13.59)"/>
    <ellipse class="cls-6" cx="909.54" cy="30.08" rx="6.85" ry="10.78" transform="translate(18.41 214.62) rotate(-13.59)"/>
    <ellipse class="cls-6" cx="909.93" cy="29.98" rx="6.82" ry="10.73" transform="translate(18.44 214.71) rotate(-13.59)"/>
    <ellipse class="cls-6" cx="910.33" cy="29.88" rx="6.78" ry="10.68" transform="translate(18.48 214.8) rotate(-13.59)"/>
    <ellipse class="cls-6" cx="910.72" cy="29.78" rx="6.75" ry="10.62" transform="translate(18.51 214.89) rotate(-13.59)"/>
    <ellipse class="cls-6" cx="911.12" cy="29.68" rx="6.72" ry="10.57" transform="translate(18.55 214.98) rotate(-13.59)"/>
    <ellipse class="cls-6" cx="911.52" cy="29.58" rx="6.68" ry="10.52" transform="translate(18.58 215.07) rotate(-13.59)"/>
    <ellipse class="cls-6" cx="911.91" cy="29.48" rx="6.65" ry="10.47" transform="translate(18.62 215.16) rotate(-13.59)"/>
    <ellipse class="cls-6" cx="912.31" cy="29.38" rx="6.62" ry="10.41" transform="translate(18.65 215.25) rotate(-13.59)"/>
    <ellipse class="cls-6" cx="912.7" cy="29.28" rx="6.58" ry="10.36" transform="translate(18.69 215.34) rotate(-13.59)"/>
    <ellipse class="cls-6" cx="913.1" cy="29.18" rx="6.55" ry="10.31" transform="translate(18.72 215.43) rotate(-13.59)"/>
    <ellipse class="cls-6" cx="913.5" cy="29.08" rx="6.52" ry="10.26" transform="translate(18.76 215.52) rotate(-13.59)"/>
    <ellipse class="cls-6" cx="913.89" cy="28.98" rx="6.48" ry="10.2" transform="translate(18.79 215.61) rotate(-13.59)"/>
    <ellipse class="cls-6" cx="914.29" cy="28.88" rx="6.45" ry="10.15" transform="translate(18.83 215.7) rotate(-13.59)"/>
    <ellipse class="cls-6" cx="914.68" cy="28.78" rx="6.42" ry="10.1" transform="translate(18.86 215.79) rotate(-13.59)"/>
    <ellipse class="cls-6" cx="915.08" cy="28.68" rx="6.38" ry="10.04" transform="translate(18.89 215.88) rotate(-13.59)"/>
    <ellipse class="cls-6" cx="915.48" cy="28.58" rx="6.35" ry="9.99" transform="translate(18.93 215.97) rotate(-13.59)"/>
    <ellipse class="cls-6" cx="915.87" cy="28.47" rx="6.32" ry="9.94" transform="translate(18.96 216.06) rotate(-13.59)"/>
    <ellipse class="cls-6" cx="916.27" cy="28.37" rx="6.28" ry="9.89" transform="translate(19 216.15) rotate(-13.59)"/>
    <ellipse class="cls-6" cx="916.66" cy="28.27" rx="6.25" ry="9.83" transform="translate(19.03 216.24) rotate(-13.59)"/>
    <ellipse class="cls-6" cx="917.06" cy="28.17" rx="6.22" ry="9.78" transform="translate(19.07 216.33) rotate(-13.59)"/>
    <ellipse class="cls-6" cx="917.46" cy="28.07" rx="6.18" ry="9.73" transform="translate(19.1 216.42) rotate(-13.59)"/>
    <ellipse class="cls-6" cx="917.85" cy="27.97" rx="6.15" ry="9.68" transform="translate(19.14 216.51) rotate(-13.59)"/>
    <ellipse class="cls-6" cx="918.25" cy="27.87" rx="6.11" ry="9.62" transform="translate(19.17 216.6) rotate(-13.59)"/>
    <ellipse class="cls-6" cx="918.64" cy="27.77" rx="6.08" ry="9.57" transform="translate(19.21 216.69) rotate(-13.59)"/>
    <ellipse class="cls-6" cx="919.04" cy="27.67" rx="6.05" ry="9.52" transform="translate(19.24 216.78) rotate(-13.59)"/>
    <ellipse class="cls-6" cx="919.44" cy="27.57" rx="6.01" ry="9.47" transform="translate(19.28 216.87) rotate(-13.59)"/>
    <ellipse class="cls-6" cx="919.83" cy="27.47" rx="5.98" ry="9.41" transform="translate(19.31 216.96) rotate(-13.59)"/>
    <ellipse class="cls-6" cx="920.23" cy="27.37" rx="5.95" ry="9.36" transform="translate(19.35 217.05) rotate(-13.59)"/>
    <ellipse class="cls-6" cx="920.62" cy="27.27" rx="5.91" ry="9.31" transform="translate(19.38 217.14) rotate(-13.59)"/>
    <ellipse class="cls-6" cx="921.02" cy="27.17" rx="5.88" ry="9.26" transform="translate(19.42 217.23) rotate(-13.59)"/>
    <ellipse class="cls-6" cx="921.42" cy="27.07" rx="5.85" ry="9.2" transform="translate(19.45 217.32) rotate(-13.59)"/>
    <ellipse class="cls-6" cx="921.81" cy="26.97" rx="5.81" ry="9.15" transform="translate(19.48 217.41) rotate(-13.59)"/>
    <ellipse class="cls-6" cx="922.21" cy="26.87" rx="5.78" ry="9.1" transform="translate(19.52 217.5) rotate(-13.59)"/>
    <ellipse class="cls-6" cx="922.6" cy="26.77" rx="5.75" ry="9.05" transform="translate(19.55 217.59) rotate(-13.59)"/>
    <ellipse class="cls-6" cx="923" cy="26.67" rx="5.71" ry="8.99" transform="translate(19.59 217.69) rotate(-13.59)"/>
    <ellipse class="cls-6" cx="923.4" cy="26.57" rx="5.68" ry="8.94" transform="translate(19.62 217.78) rotate(-13.59)"/>
    <ellipse class="cls-6" cx="923.79" cy="26.47" rx="5.65" ry="8.89" transform="translate(19.66 217.87) rotate(-13.59)"/>
    <ellipse class="cls-6" cx="924.19" cy="26.37" rx="5.61" ry="8.84" transform="translate(19.69 217.96) rotate(-13.59)"/>
    <ellipse class="cls-6" cx="924.58" cy="26.27" rx="5.58" ry="8.78" transform="translate(19.73 218.05) rotate(-13.59)"/>
    <ellipse class="cls-6" cx="924.98" cy="26.17" rx="5.55" ry="8.73" transform="translate(19.76 218.14) rotate(-13.59)"/>
    <ellipse class="cls-6" cx="925.38" cy="26.06" rx="5.51" ry="8.68" transform="translate(19.8 218.23) rotate(-13.59)"/>
    <ellipse class="cls-6" cx="925.77" cy="25.96" rx="5.48" ry="8.63" transform="translate(19.83 218.32) rotate(-13.59)"/>
    <ellipse class="cls-6" cx="926.17" cy="25.86" rx="5.45" ry="8.57" transform="translate(19.87 218.41) rotate(-13.59)"/>
    <ellipse class="cls-6" cx="926.56" cy="25.76" rx="5.41" ry="8.52" transform="translate(19.9 218.5) rotate(-13.59)"/>
    <ellipse class="cls-6" cx="926.96" cy="25.66" rx="5.38" ry="8.47" transform="translate(19.94 218.59) rotate(-13.59)"/>
    <ellipse class="cls-6" cx="927.36" cy="25.56" rx="5.35" ry="8.42" transform="translate(19.97 218.68) rotate(-13.59)"/>
    <ellipse class="cls-6" cx="927.75" cy="25.46" rx="5.31" ry="8.36" transform="translate(20 218.77) rotate(-13.59)"/>
    <ellipse class="cls-6" cx="928.15" cy="25.36" rx="5.28" ry="8.31" transform="translate(20.04 218.86) rotate(-13.59)"/>
    <ellipse class="cls-6" cx="928.54" cy="25.26" rx="5.25" ry="8.26" transform="translate(20.07 218.95) rotate(-13.59)"/>
    <ellipse class="cls-6" cx="928.94" cy="25.16" rx="5.21" ry="8.21" transform="translate(20.11 219.04) rotate(-13.59)"/>
    <ellipse class="cls-6" cx="929.33" cy="25.06" rx="5.18" ry="8.15" transform="translate(20.14 219.13) rotate(-13.59)"/>
    <ellipse class="cls-6" cx="929.73" cy="24.96" rx="5.15" ry="8.1" transform="translate(20.18 219.22) rotate(-13.59)"/>
    <ellipse class="cls-6" cx="930.13" cy="24.86" rx="5.11" ry="8.05" transform="translate(20.21 219.31) rotate(-13.59)"/>
    <ellipse class="cls-6" cx="930.52" cy="24.76" rx="5.08" ry="8" transform="translate(20.25 219.4) rotate(-13.59)"/>
    <ellipse class="cls-6" cx="930.92" cy="24.66" rx="5.05" ry="7.94" transform="translate(20.28 219.49) rotate(-13.59)"/>
    <ellipse class="cls-6" cx="931.31" cy="24.56" rx="5.01" ry="7.89" transform="translate(20.32 219.58) rotate(-13.59)"/>
    <ellipse class="cls-6" cx="931.71" cy="24.46" rx="4.98" ry="7.84" transform="translate(20.35 219.67) rotate(-13.59)"/>
    <ellipse class="cls-6" cx="932.11" cy="24.36" rx="4.95" ry="7.79" transform="translate(20.39 219.76) rotate(-13.59)"/>
    <ellipse class="cls-6" cx="932.5" cy="24.26" rx="4.91" ry="7.73" transform="translate(20.42 219.85) rotate(-13.59)"/>
    <ellipse class="cls-6" cx="932.9" cy="24.16" rx="4.88" ry="7.68" transform="translate(20.46 219.94) rotate(-13.59)"/>
    <ellipse class="cls-6" cx="933.29" cy="24.06" rx="4.85" ry="7.63" transform="translate(20.49 220.03) rotate(-13.59)"/>
    <ellipse class="cls-6" cx="933.69" cy="23.96" rx="4.81" ry="7.58" transform="translate(20.53 220.12) rotate(-13.59)"/>
    <ellipse class="cls-6" cx="934.09" cy="23.86" rx="4.78" ry="7.52" transform="translate(20.56 220.21) rotate(-13.59)"/>
    <ellipse class="cls-6" cx="934.48" cy="23.76" rx="4.75" ry="7.47" transform="translate(20.59 220.3) rotate(-13.59)"/>
    <ellipse class="cls-6" cx="934.88" cy="23.65" rx="4.71" ry="7.42" transform="translate(20.63 220.39) rotate(-13.59)"/>
  </g>
  <g>
    <g>
      <path class="cls-6" d="M740.71,185.03c8.39-1.87,14.67-9.38,14.67-18.32v-16.1c0-10.37-8.4-18.77-18.77-18.77h-12.5c-1.19,0-2.09-1.12-1.78-2.27,1.21-4.42,.76-9.17-1.39-13.41l-10.5-20.66c-.37-.73-.2-1.61,.4-2.18,3.04-2.86,5.69-6.11,7.93-9.74,5.12-8.28,7.71-18.14,7.71-29.32,0-16.86-5.45-30.27-16.19-39.86-10.27-9.15-24.07-13.79-41.03-13.79h-46.88c-4.05,0-7.81,1.29-10.88,3.48-.62,.44-1.46,.44-2.08,0-3.07-2.19-6.83-3.48-10.88-3.48h-72.36c-10.37,0-18.77,8.4-18.77,18.77,0,3.16-2.56,5.72-5.72,5.72h-15.04c-3.16,0-5.72-2.56-5.72-5.72h0c0-10.37-8.4-18.77-18.77-18.77h-20.64c-10.37,0-18.77,8.4-18.77,18.77,0,3.16-2.56,5.72-5.72,5.72h-15.47c-3.16,0-5.72-2.56-5.72-5.72h0c0-10.37-8.4-18.77-18.77-18.77h-20.64c-6.32,0-11.91,3.15-15.31,7.96-.75,1.06-2.28,1.06-3.03,0-3.4-4.81-8.99-7.96-15.31-7.96h-20.64c-3.99,0-7.7,1.26-10.74,3.4-.62,.43-1.44,.43-2.06,0-3.05-2.14-6.75-3.4-10.74-3.4h-69.41c-10.37,0-18.77,8.4-18.77,18.77V124.67c0,1.69,.23,3.32,.65,4.88,.31,1.16-.57,2.3-1.77,2.3-10.37,0-18.77,8.4-18.77,18.77v105.27c0,10.37,8.4,18.77,18.77,18.77h20.64c10.37,0,18.77-8.4,18.77-18.77v-9.13c0-1.56,1.26-2.82,2.82-2.82h9.1c1.68,0,3.04,1.36,3.04,3.04v8.91c0,10.37,8.4,18.77,18.77,18.77h21.74c9.76,0,17.66-7.91,17.66-17.66v-4c0-1.93,2.39-2.81,3.65-1.35,5.66,6.56,12.45,12,20.32,16.23,11.37,6.12,24.16,9.22,38.03,9.22s26.5-3.1,37.87-9.22c10.45-5.62,18.99-13.37,25.46-23.06,.36-.54,.96-.87,1.62-.87h1.46c.74,0,1.4,.42,1.73,1.07,2.57,5.02,5.8,9.62,9.73,13.77,11.5,12.15,28.08,18.31,49.29,18.31s37.77-6.13,49.21-18.23c.59-.63,1.17-1.26,1.73-1.91,.93-1.08,2.69-.71,3.1,.65,1.55,5.15,5.26,9.49,10.32,11.74,5.14,2.29,11.26,4.12,18.19,5.46,7.91,1.52,15.99,2.29,24.02,2.29,18.66,0,32.78-3.9,43.15-11.92,1.13-.87,2.2-1.78,3.21-2.73,.97-.91,2.52-.56,3.03,.67,2.83,6.77,9.51,11.55,17.3,11.55h72.36c10.37,0,18.77-8.4,18.77-18.77v-16.1c0-8.94-6.29-16.45-14.67-18.32-1.16-.26-1.78-1.53-1.25-2.59,1.27-2.53,1.98-5.38,1.98-8.39v-14.47c0-3.01-.71-5.86-1.98-8.39-.53-1.06,.09-2.33,1.25-2.59Z"/>
      <path class="cls-6" d="M742.35,186.67c8.39-1.87,14.67-9.38,14.67-18.32v-16.1c0-10.37-8.4-18.77-18.77-18.77h-12.5c-1.19,0-2.09-1.12-1.78-2.27,1.21-4.42,.76-9.17-1.39-13.41l-10.5-20.66c-.37-.73-.2-1.61,.4-2.18,3.04-2.86,5.69-6.11,7.93-9.74,5.12-8.28,7.71-18.14,7.71-29.32,0-16.86-5.45-30.27-16.19-39.86-10.27-9.15-24.07-13.79-41.03-13.79h-46.88c-4.05,0-7.81,1.29-10.88,3.48-.62,.44-1.46,.44-2.08,0-3.07-2.19-6.83-3.48-10.88-3.48h-72.36c-10.37,0-18.77,8.4-18.77,18.77,0,3.16-2.56,5.72-5.72,5.72h-15.04c-3.16,0-5.72-2.56-5.72-5.72h0c0-10.37-8.4-18.77-18.77-18.77h-20.64c-10.37,0-18.77,8.4-18.77,18.77,0,3.16-2.56,5.72-5.72,5.72h-15.47c-3.16,0-5.72-2.56-5.72-5.72h0c0-10.37-8.4-18.77-18.77-18.77h-20.64c-6.32,0-11.91,3.15-15.31,7.96-.75,1.06-2.28,1.06-3.03,0-3.4-4.81-8.99-7.96-15.31-7.96h-20.64c-3.99,0-7.7,1.26-10.74,3.4-.62,.43-1.44,.43-2.06,0-3.05-2.14-6.75-3.4-10.74-3.4h-69.41c-10.37,0-18.77,8.4-18.77,18.77V126.31c0,1.69,.23,3.32,.65,4.88,.31,1.16-.57,2.3-1.77,2.3-10.37,0-18.77,8.4-18.77,18.77v105.27c0,10.37,8.4,18.77,18.77,18.77h20.64c10.37,0,18.77-8.4,18.77-18.77v-9.13c0-1.56,1.26-2.82,2.82-2.82h9.1c1.68,0,3.04,1.36,3.04,3.04v8.91c0,10.37,8.4,18.77,18.77,18.77h21.74c9.76,0,17.66-7.91,17.66-17.66v-4c0-1.93,2.39-2.81,3.65-1.35,5.66,6.56,12.45,12,20.32,16.23,11.37,6.12,24.16,9.22,38.03,9.22s26.5-3.1,37.87-9.22c10.45-5.62,18.99-13.37,25.46-23.06,.36-.54,.96-.87,1.62-.87h1.46c.74,0,1.4,.42,1.73,1.07,2.57,5.02,5.8,9.62,9.73,13.77,11.5,12.15,28.08,18.31,49.29,18.31s37.77-6.13,49.21-18.23c.59-.63,1.17-1.26,1.73-1.91,.93-1.08,2.69-.71,3.1,.65,1.55,5.15,5.26,9.49,10.32,11.74,5.14,2.29,11.26,4.12,18.19,5.46,7.91,1.52,15.99,2.29,24.02,2.29,18.66,0,32.78-3.9,43.15-11.92,1.13-.87,2.2-1.78,3.21-2.73,.97-.91,2.52-.56,3.03,.67,2.83,6.77,9.51,11.55,17.3,11.55h72.36c10.37,0,18.77-8.4,18.77-18.77v-16.1c0-8.94-6.29-16.45-14.67-18.32-1.16-.26-1.78-1.53-1.25-2.59,1.27-2.53,1.98-5.38,1.98-8.39v-14.47c0-3.01-.71-5.86-1.98-8.39-.53-1.06,.09-2.33,1.25-2.59Z"/>
      <path class="cls-6" d="M744,188.31c8.39-1.87,14.67-9.38,14.67-18.32v-16.1c0-10.37-8.4-18.77-18.77-18.77h-12.5c-1.19,0-2.09-1.12-1.78-2.27,1.21-4.42,.76-9.17-1.39-13.41l-10.5-20.66c-.37-.73-.2-1.61,.4-2.18,3.04-2.86,5.69-6.11,7.93-9.74,5.12-8.28,7.71-18.14,7.71-29.32,0-16.86-5.45-30.27-16.19-39.86-10.27-9.15-24.07-13.79-41.03-13.79h-46.88c-4.05,0-7.81,1.29-10.88,3.48-.62,.44-1.46,.44-2.08,0-3.07-2.19-6.83-3.48-10.88-3.48h-72.36c-10.37,0-18.77,8.4-18.77,18.77,0,3.16-2.56,5.72-5.72,5.72h-15.04c-3.16,0-5.72-2.56-5.72-5.72h0c0-10.37-8.4-18.77-18.77-18.77h-20.64c-10.37,0-18.77,8.4-18.77,18.77,0,3.16-2.56,5.72-5.72,5.72h-15.47c-3.16,0-5.72-2.56-5.72-5.72h0c0-10.37-8.4-18.77-18.77-18.77h-20.64c-6.32,0-11.91,3.15-15.31,7.96-.75,1.06-2.28,1.06-3.03,0-3.4-4.81-8.99-7.96-15.31-7.96h-20.64c-3.99,0-7.7,1.26-10.74,3.4-.62,.43-1.44,.43-2.06,0-3.05-2.14-6.75-3.4-10.74-3.4h-69.41c-10.37,0-18.77,8.4-18.77,18.77V127.95c0,1.69,.23,3.32,.65,4.88,.31,1.16-.57,2.3-1.77,2.3-10.37,0-18.77,8.4-18.77,18.77v105.27c0,10.37,8.4,18.77,18.77,18.77h20.64c10.37,0,18.77-8.4,18.77-18.77v-9.13c0-1.56,1.26-2.82,2.82-2.82h9.1c1.68,0,3.04,1.36,3.04,3.04v8.91c0,10.37,8.4,18.77,18.77,18.77h21.74c9.76,0,17.66-7.91,17.66-17.66v-4c0-1.93,2.39-2.81,3.65-1.35,5.66,6.56,12.45,12,20.32,16.23,11.37,6.12,24.16,9.22,38.03,9.22s26.5-3.1,37.87-9.22c10.45-5.62,18.99-13.37,25.46-23.06,.36-.54,.96-.87,1.62-.87h1.46c.74,0,1.4,.42,1.73,1.07,2.57,5.02,5.8,9.62,9.73,13.77,11.5,12.15,28.08,18.31,49.29,18.31s37.77-6.13,49.21-18.23c.59-.63,1.17-1.26,1.73-1.91,.93-1.08,2.69-.71,3.1,.65,1.55,5.15,5.26,9.49,10.32,11.74,5.14,2.29,11.26,4.12,18.19,5.46,7.91,1.52,15.99,2.29,24.02,2.29,18.66,0,32.78-3.9,43.15-11.92,1.13-.87,2.2-1.78,3.21-2.73,.97-.91,2.52-.56,3.03,.67,2.83,6.77,9.51,11.55,17.3,11.55h72.36c10.37,0,18.77-8.4,18.77-18.77v-16.1c0-8.94-6.29-16.45-14.67-18.32-1.16-.26-1.78-1.53-1.25-2.59,1.27-2.53,1.98-5.38,1.98-8.39v-14.47c0-3.01-.71-5.86-1.98-8.39-.53-1.06,.09-2.33,1.25-2.59Z"/>
      <path class="cls-6" d="M745.64,189.95c8.39-1.87,14.67-9.38,14.67-18.32v-16.1c0-10.37-8.4-18.77-18.77-18.77h-12.5c-1.19,0-2.09-1.12-1.78-2.27,1.21-4.42,.76-9.17-1.39-13.41l-10.5-20.66c-.37-.73-.2-1.61,.4-2.18,3.04-2.86,5.69-6.11,7.93-9.74,5.12-8.28,7.71-18.14,7.71-29.32,0-16.86-5.45-30.27-16.19-39.86-10.27-9.15-24.07-13.79-41.03-13.79h-46.88c-4.05,0-7.81,1.29-10.88,3.48-.62,.44-1.46,.44-2.08,0-3.07-2.19-6.83-3.48-10.88-3.48h-72.36c-10.37,0-18.77,8.4-18.77,18.77,0,3.16-2.56,5.72-5.72,5.72h-15.04c-3.16,0-5.72-2.56-5.72-5.72h0c0-10.37-8.4-18.77-18.77-18.77h-20.64c-10.37,0-18.77,8.4-18.77,18.77,0,3.16-2.56,5.72-5.72,5.72h-15.47c-3.16,0-5.72-2.56-5.72-5.72h0c0-10.37-8.4-18.77-18.77-18.77h-20.64c-6.32,0-11.91,3.15-15.31,7.96-.75,1.06-2.28,1.06-3.03,0-3.4-4.81-8.99-7.96-15.31-7.96h-20.64c-3.99,0-7.7,1.26-10.74,3.4-.62,.43-1.44,.43-2.06,0-3.05-2.14-6.75-3.4-10.74-3.4h-69.41c-10.37,0-18.77,8.4-18.77,18.77v105.27c0,1.69,.23,3.32,.65,4.88,.31,1.16-.57,2.3-1.77,2.3-10.37,0-18.77,8.4-18.77,18.77v105.27c0,10.37,8.4,18.77,18.77,18.77h20.64c10.37,0,18.77-8.4,18.77-18.77v-9.13c0-1.56,1.26-2.82,2.82-2.82h9.1c1.68,0,3.04,1.36,3.04,3.04v8.91c0,10.37,8.4,18.77,18.77,18.77h21.74c9.76,0,17.66-7.91,17.66-17.66v-4c0-1.93,2.39-2.81,3.65-1.35,5.66,6.56,12.45,12,20.32,16.23,11.37,6.12,24.16,9.22,38.03,9.22s26.5-3.1,37.87-9.22c10.45-5.62,18.99-13.37,25.46-23.06,.36-.54,.96-.87,1.62-.87h1.46c.74,0,1.4,.42,1.73,1.07,2.57,5.02,5.8,9.62,9.73,13.77,11.5,12.15,28.08,18.31,49.29,18.31s37.77-6.13,49.21-18.23c.59-.63,1.17-1.26,1.73-1.91,.93-1.08,2.69-.71,3.1,.65,1.55,5.15,5.26,9.49,10.32,11.74,5.14,2.29,11.26,4.12,18.19,5.46,7.91,1.52,15.99,2.29,24.02,2.29,18.66,0,32.78-3.9,43.15-11.92,1.13-.87,2.2-1.78,3.21-2.73,.97-.91,2.52-.56,3.03,.67,2.83,6.77,9.51,11.55,17.3,11.55h72.36c10.37,0,18.77-8.4,18.77-18.77v-16.1c0-8.94-6.29-16.45-14.67-18.32-1.16-.26-1.78-1.53-1.25-2.59,1.27-2.53,1.98-5.38,1.98-8.39v-14.47c0-3.01-.71-5.86-1.98-8.39-.53-1.06,.09-2.33,1.25-2.59Z"/>
      <path class="cls-6" d="M747.28,191.59c8.39-1.87,14.67-9.38,14.67-18.32v-16.1c0-10.37-8.4-18.77-18.77-18.77h-12.5c-1.19,0-2.09-1.12-1.78-2.27,1.21-4.42,.76-9.17-1.39-13.41l-10.5-20.66c-.37-.73-.2-1.61,.4-2.18,3.04-2.86,5.69-6.11,7.93-9.74,5.12-8.28,7.71-18.14,7.71-29.32,0-16.86-5.45-30.27-16.19-39.86-10.27-9.15-24.07-13.79-41.03-13.79h-46.88c-4.05,0-7.81,1.29-10.88,3.48-.62,.44-1.46,.44-2.08,0-3.07-2.19-6.83-3.48-10.88-3.48h-72.36c-10.37,0-18.77,8.4-18.77,18.77,0,3.16-2.56,5.72-5.72,5.72h-15.04c-3.16,0-5.72-2.56-5.72-5.72h0c0-10.37-8.4-18.77-18.77-18.77h-20.64c-10.37,0-18.77,8.4-18.77,18.77,0,3.16-2.56,5.72-5.72,5.72h-15.47c-3.16,0-5.72-2.56-5.72-5.72h0c0-10.37-8.4-18.77-18.77-18.77h-20.64c-6.32,0-11.91,3.15-15.31,7.96-.75,1.06-2.28,1.06-3.03,0-3.4-4.81-8.99-7.96-15.31-7.96h-20.64c-3.99,0-7.7,1.26-10.74,3.4-.62,.43-1.44,.43-2.06,0-3.05-2.14-6.75-3.4-10.74-3.4h-69.41c-10.37,0-18.77,8.4-18.77,18.77v105.27c0,1.69,.23,3.32,.65,4.88,.31,1.16-.57,2.3-1.77,2.3-10.37,0-18.77,8.4-18.77,18.77v105.27c0,10.37,8.4,18.77,18.77,18.77h20.64c10.37,0,18.77-8.4,18.77-18.77v-9.13c0-1.56,1.26-2.82,2.82-2.82h9.1c1.68,0,3.04,1.36,3.04,3.04v8.91c0,10.37,8.4,18.77,18.77,18.77h21.74c9.76,0,17.66-7.91,17.66-17.66v-4c0-1.93,2.39-2.81,3.65-1.35,5.66,6.56,12.45,12,20.32,16.23,11.37,6.12,24.16,9.22,38.03,9.22s26.5-3.1,37.87-9.22c10.45-5.62,18.99-13.37,25.46-23.06,.36-.54,.96-.87,1.62-.87h1.46c.74,0,1.4,.42,1.73,1.07,2.57,5.02,5.8,9.62,9.73,13.77,11.5,12.15,28.08,18.31,49.29,18.31s37.77-6.13,49.21-18.23c.59-.63,1.17-1.26,1.73-1.91,.93-1.08,2.69-.71,3.1,.65,1.55,5.15,5.26,9.49,10.32,11.74,5.14,2.29,11.26,4.12,18.19,5.46,7.91,1.52,15.99,2.29,24.02,2.29,18.66,0,32.78-3.9,43.15-11.92,1.13-.87,2.2-1.78,3.21-2.73,.97-.91,2.52-.56,3.03,.67,2.83,6.77,9.51,11.55,17.3,11.55h72.36c10.37,0,18.77-8.4,18.77-18.77v-16.1c0-8.94-6.29-16.45-14.67-18.32-1.16-.26-1.78-1.53-1.25-2.59,1.27-2.53,1.98-5.38,1.98-8.39v-14.47c0-3.01-.71-5.86-1.98-8.39-.53-1.06,.09-2.33,1.25-2.59Z"/>
      <path class="cls-6" d="M748.92,193.23c8.39-1.87,14.67-9.38,14.67-18.32v-16.1c0-10.37-8.4-18.77-18.77-18.77h-12.5c-1.19,0-2.09-1.12-1.78-2.27,1.21-4.42,.76-9.17-1.39-13.41l-10.5-20.66c-.37-.73-.2-1.61,.4-2.18,3.04-2.86,5.69-6.11,7.93-9.74,5.12-8.28,7.71-18.14,7.71-29.32,0-16.86-5.45-30.27-16.19-39.86-10.27-9.15-24.07-13.79-41.03-13.79h-46.88c-4.05,0-7.81,1.29-10.88,3.48-.62,.44-1.46,.44-2.08,0-3.07-2.19-6.83-3.48-10.88-3.48h-72.36c-10.37,0-18.77,8.4-18.77,18.77,0,3.16-2.56,5.72-5.72,5.72h-15.04c-3.16,0-5.72-2.56-5.72-5.72h0c0-10.37-8.4-18.77-18.77-18.77h-20.64c-10.37,0-18.77,8.4-18.77,18.77,0,3.16-2.56,5.72-5.72,5.72h-15.47c-3.16,0-5.72-2.56-5.72-5.72h0c0-10.37-8.4-18.77-18.77-18.77h-20.64c-6.32,0-11.91,3.15-15.31,7.96-.75,1.06-2.28,1.06-3.03,0-3.4-4.81-8.99-7.96-15.31-7.96h-20.64c-3.99,0-7.7,1.26-10.74,3.4-.62,.43-1.44,.43-2.06,0-3.05-2.14-6.75-3.4-10.74-3.4h-69.41c-10.37,0-18.77,8.4-18.77,18.77v105.27c0,1.69,.23,3.32,.65,4.88,.31,1.16-.57,2.3-1.77,2.3-10.37,0-18.77,8.4-18.77,18.77v105.27c0,10.37,8.4,18.77,18.77,18.77h20.64c10.37,0,18.77-8.4,18.77-18.77v-9.13c0-1.56,1.26-2.82,2.82-2.82h9.1c1.68,0,3.04,1.36,3.04,3.04v8.91c0,10.37,8.4,18.77,18.77,18.77h21.74c9.76,0,17.66-7.91,17.66-17.66v-4c0-1.93,2.39-2.81,3.65-1.35,5.66,6.56,12.45,12,20.32,16.23,11.37,6.12,24.16,9.22,38.03,9.22s26.5-3.1,37.87-9.22c10.45-5.62,18.99-13.37,25.46-23.06,.36-.54,.96-.87,1.62-.87h1.46c.74,0,1.4,.42,1.73,1.07,2.57,5.02,5.8,9.62,9.73,13.77,11.5,12.15,28.08,18.31,49.29,18.31s37.77-6.13,49.21-18.23c.59-.63,1.17-1.26,1.73-1.91,.93-1.08,2.69-.71,3.1,.65,1.55,5.15,5.26,9.49,10.32,11.74,5.14,2.29,11.26,4.12,18.19,5.46,7.91,1.52,15.99,2.29,24.02,2.29,18.66,0,32.78-3.9,43.15-11.92,1.13-.87,2.2-1.78,3.21-2.73,.97-.91,2.52-.56,3.03,.67,2.83,6.77,9.51,11.55,17.3,11.55h72.36c10.37,0,18.77-8.4,18.77-18.77v-16.1c0-8.94-6.29-16.45-14.67-18.32-1.16-.26-1.78-1.53-1.25-2.59,1.27-2.53,1.98-5.38,1.98-8.39v-14.47c0-3.01-.71-5.86-1.98-8.39-.53-1.06,.09-2.33,1.25-2.59Z"/>
      <path class="cls-6" d="M750.56,194.88c8.39-1.87,14.67-9.38,14.67-18.32v-16.1c0-10.37-8.4-18.77-18.77-18.77h-12.5c-1.19,0-2.09-1.12-1.78-2.27,1.21-4.42,.76-9.17-1.39-13.41l-10.5-20.66c-.37-.73-.2-1.61,.4-2.18,3.04-2.86,5.69-6.11,7.93-9.74,5.12-8.28,7.71-18.14,7.71-29.32,0-16.86-5.45-30.27-16.19-39.86-10.27-9.15-24.07-13.79-41.03-13.79h-46.88c-4.05,0-7.81,1.29-10.88,3.48-.62,.44-1.46,.44-2.08,0-3.07-2.19-6.83-3.48-10.88-3.48h-72.36c-10.37,0-18.77,8.4-18.77,18.77,0,3.16-2.56,5.72-5.72,5.72h-15.04c-3.16,0-5.72-2.56-5.72-5.72h0c0-10.37-8.4-18.77-18.77-18.77h-20.64c-10.37,0-18.77,8.4-18.77,18.77,0,3.16-2.56,5.72-5.72,5.72h-15.47c-3.16,0-5.72-2.56-5.72-5.72h0c0-10.37-8.4-18.77-18.77-18.77h-20.64c-6.32,0-11.91,3.15-15.31,7.96-.75,1.06-2.28,1.06-3.03,0-3.4-4.81-8.99-7.96-15.31-7.96h-20.64c-3.99,0-7.7,1.26-10.74,3.4-.62,.43-1.44,.43-2.06,0-3.05-2.14-6.75-3.4-10.74-3.4h-69.41c-10.37,0-18.77,8.4-18.77,18.77v105.27c0,1.69,.23,3.32,.65,4.88,.31,1.16-.57,2.3-1.77,2.3-10.37,0-18.77,8.4-18.77,18.77v105.27c0,10.37,8.4,18.77,18.77,18.77h20.64c10.37,0,18.77-8.4,18.77-18.77v-9.13c0-1.56,1.26-2.82,2.82-2.82h9.1c1.68,0,3.04,1.36,3.04,3.04v8.91c0,10.37,8.4,18.77,18.77,18.77h21.74c9.76,0,17.66-7.91,17.66-17.66v-4c0-1.93,2.39-2.81,3.65-1.35,5.66,6.56,12.45,12,20.32,16.23,11.37,6.12,24.16,9.22,38.03,9.22s26.5-3.1,37.87-9.22c10.45-5.62,18.99-13.37,25.46-23.06,.36-.54,.96-.87,1.62-.87h1.46c.74,0,1.4,.42,1.73,1.07,2.57,5.02,5.8,9.62,9.73,13.77,11.5,12.15,28.08,18.31,49.29,18.31s37.77-6.13,49.21-18.23c.59-.63,1.17-1.26,1.73-1.91,.93-1.08,2.69-.71,3.1,.65,1.55,5.15,5.26,9.49,10.32,11.74,5.14,2.29,11.26,4.12,18.19,5.46,7.91,1.52,15.99,2.29,24.02,2.29,18.66,0,32.78-3.9,43.15-11.92,1.13-.87,2.2-1.78,3.21-2.73,.97-.91,2.52-.56,3.03,.67,2.83,6.77,9.51,11.55,17.3,11.55h72.36c10.37,0,18.77-8.4,18.77-18.77v-16.1c0-8.94-6.29-16.45-14.67-18.32-1.16-.26-1.78-1.53-1.25-2.59,1.27-2.53,1.98-5.38,1.98-8.39v-14.47c0-3.01-.71-5.86-1.98-8.39-.53-1.06,.09-2.33,1.25-2.59Z"/>
      <path class="cls-6" d="M752.2,196.52c8.39-1.87,14.67-9.38,14.67-18.32v-16.1c0-10.37-8.4-18.77-18.77-18.77h-12.5c-1.19,0-2.09-1.12-1.78-2.27,1.21-4.42,.76-9.17-1.39-13.41l-10.5-20.66c-.37-.73-.2-1.61,.4-2.18,3.04-2.86,5.69-6.11,7.93-9.74,5.12-8.28,7.71-18.14,7.71-29.32,0-16.86-5.45-30.27-16.19-39.86-10.27-9.15-24.07-13.79-41.03-13.79h-46.88c-4.05,0-7.81,1.29-10.88,3.48-.62,.44-1.46,.44-2.08,0-3.07-2.19-6.83-3.48-10.88-3.48h-72.36c-10.37,0-18.77,8.4-18.77,18.77,0,3.16-2.56,5.72-5.72,5.72h-15.04c-3.16,0-5.72-2.56-5.72-5.72h0c0-10.37-8.4-18.77-18.77-18.77h-20.64c-10.37,0-18.77,8.4-18.77,18.77,0,3.16-2.56,5.72-5.72,5.72h-15.47c-3.16,0-5.72-2.56-5.72-5.72h0c0-10.37-8.4-18.77-18.77-18.77h-20.64c-6.32,0-11.91,3.15-15.31,7.96-.75,1.06-2.28,1.06-3.03,0-3.4-4.81-8.99-7.96-15.31-7.96h-20.64c-3.99,0-7.7,1.26-10.74,3.4-.62,.43-1.44,.43-2.06,0-3.05-2.14-6.75-3.4-10.74-3.4h-69.41c-10.37,0-18.77,8.4-18.77,18.77v105.27c0,1.69,.23,3.32,.65,4.88,.31,1.16-.57,2.3-1.77,2.3-10.37,0-18.77,8.4-18.77,18.77v105.27c0,10.37,8.4,18.77,18.77,18.77h20.64c10.37,0,18.77-8.4,18.77-18.77v-9.13c0-1.56,1.26-2.82,2.82-2.82h9.1c1.68,0,3.04,1.36,3.04,3.04v8.91c0,10.37,8.4,18.77,18.77,18.77h21.74c9.76,0,17.66-7.91,17.66-17.66v-4c0-1.93,2.39-2.81,3.65-1.35,5.66,6.56,12.45,12,20.32,16.23,11.37,6.12,24.16,9.22,38.03,9.22s26.5-3.1,37.87-9.22c10.45-5.62,18.99-13.37,25.46-23.06,.36-.54,.96-.87,1.62-.87h1.46c.74,0,1.4,.42,1.73,1.07,2.57,5.02,5.8,9.62,9.73,13.77,11.5,12.15,28.08,18.31,49.29,18.31s37.77-6.13,49.21-18.23c.59-.63,1.17-1.26,1.73-1.91,.93-1.08,2.69-.71,3.1,.65,1.55,5.15,5.26,9.49,10.32,11.74,5.14,2.29,11.26,4.12,18.19,5.46,7.91,1.52,15.99,2.29,24.02,2.29,18.66,0,32.78-3.9,43.15-11.92,1.13-.87,2.2-1.78,3.21-2.73,.97-.91,2.52-.56,3.03,.67,2.83,6.77,9.51,11.55,17.3,11.55h72.36c10.37,0,18.77-8.4,18.77-18.77v-16.1c0-8.94-6.29-16.45-14.67-18.32-1.16-.26-1.78-1.53-1.25-2.59,1.27-2.53,1.98-5.38,1.98-8.39v-14.47c0-3.01-.71-5.86-1.98-8.39-.53-1.06,.09-2.33,1.25-2.59Z"/>
      <path class="cls-6" d="M753.84,198.16c8.39-1.87,14.67-9.38,14.67-18.32v-16.1c0-10.37-8.4-18.77-18.77-18.77h-12.5c-1.19,0-2.09-1.12-1.78-2.27,1.21-4.42,.76-9.17-1.39-13.41l-10.5-20.66c-.37-.73-.2-1.61,.4-2.18,3.04-2.86,5.69-6.11,7.93-9.74,5.12-8.28,7.71-18.14,7.71-29.32,0-16.86-5.45-30.27-16.19-39.86-10.27-9.15-24.07-13.79-41.03-13.79h-46.88c-4.05,0-7.81,1.29-10.88,3.48-.62,.44-1.46,.44-2.08,0-3.07-2.19-6.83-3.48-10.88-3.48h-72.36c-10.37,0-18.77,8.4-18.77,18.77,0,3.16-2.56,5.72-5.72,5.72h-15.04c-3.16,0-5.72-2.56-5.72-5.72h0c0-10.37-8.4-18.77-18.77-18.77h-20.64c-10.37,0-18.77,8.4-18.77,18.77,0,3.16-2.56,5.72-5.72,5.72h-15.47c-3.16,0-5.72-2.56-5.72-5.72h0c0-10.37-8.4-18.77-18.77-18.77h-20.64c-6.32,0-11.91,3.15-15.31,7.96-.75,1.06-2.28,1.06-3.03,0-3.4-4.81-8.99-7.96-15.31-7.96h-20.64c-3.99,0-7.7,1.26-10.74,3.4-.62,.43-1.44,.43-2.06,0-3.05-2.14-6.75-3.4-10.74-3.4h-69.41c-10.37,0-18.77,8.4-18.77,18.77v105.27c0,1.69,.23,3.32,.65,4.88,.31,1.16-.57,2.3-1.77,2.3-10.37,0-18.77,8.4-18.77,18.77v105.27c0,10.37,8.4,18.77,18.77,18.77h20.64c10.37,0,18.77-8.4,18.77-18.77v-9.13c0-1.56,1.26-2.82,2.82-2.82h9.1c1.68,0,3.04,1.36,3.04,3.04v8.91c0,10.37,8.4,18.77,18.77,18.77h21.74c9.76,0,17.66-7.91,17.66-17.66v-4c0-1.93,2.39-2.81,3.65-1.35,5.66,6.56,12.45,12,20.32,16.23,11.37,6.12,24.16,9.22,38.03,9.22s26.5-3.1,37.87-9.22c10.45-5.62,18.99-13.37,25.46-23.06,.36-.54,.96-.87,1.62-.87h1.46c.74,0,1.4,.42,1.73,1.07,2.57,5.02,5.8,9.62,9.73,13.77,11.5,12.15,28.08,18.31,49.29,18.31s37.77-6.13,49.21-18.23c.59-.63,1.17-1.26,1.73-1.91,.93-1.08,2.69-.71,3.1,.65,1.55,5.15,5.26,9.49,10.32,11.74,5.14,2.29,11.26,4.12,18.19,5.46,7.91,1.52,15.99,2.29,24.02,2.29,18.66,0,32.78-3.9,43.15-11.92,1.13-.87,2.2-1.78,3.21-2.73,.97-.91,2.52-.56,3.03,.67,2.83,6.77,9.51,11.55,17.3,11.55h72.36c10.37,0,18.77-8.4,18.77-18.77v-16.1c0-8.94-6.29-16.45-14.67-18.32-1.16-.26-1.78-1.53-1.25-2.59,1.27-2.53,1.98-5.38,1.98-8.39v-14.47c0-3.01-.71-5.86-1.98-8.39-.53-1.06,.09-2.33,1.25-2.59Z"/>
      <path class="cls-6" d="M755.48,199.8c8.39-1.87,14.67-9.38,14.67-18.32v-16.1c0-10.37-8.4-18.77-18.77-18.77h-12.5c-1.19,0-2.09-1.12-1.78-2.27,1.21-4.42,.76-9.17-1.39-13.41l-10.5-20.66c-.37-.73-.2-1.61,.4-2.18,3.04-2.86,5.69-6.11,7.93-9.74,5.12-8.28,7.71-18.14,7.71-29.32,0-16.86-5.45-30.27-16.19-39.86-10.27-9.15-24.07-13.79-41.03-13.79h-46.88c-4.05,0-7.81,1.29-10.88,3.48-.62,.44-1.46,.44-2.08,0-3.07-2.19-6.83-3.48-10.88-3.48h-72.36c-10.37,0-18.77,8.4-18.77,18.77,0,3.16-2.56,5.72-5.72,5.72h-15.04c-3.16,0-5.72-2.56-5.72-5.72h0c0-10.37-8.4-18.77-18.77-18.77h-20.64c-10.37,0-18.77,8.4-18.77,18.77,0,3.16-2.56,5.72-5.72,5.72h-15.47c-3.16,0-5.72-2.56-5.72-5.72h0c0-10.37-8.4-18.77-18.77-18.77h-20.64c-6.32,0-11.91,3.15-15.31,7.96-.75,1.06-2.28,1.06-3.03,0-3.4-4.81-8.99-7.96-15.31-7.96h-20.64c-3.99,0-7.7,1.26-10.74,3.4-.62,.43-1.44,.43-2.06,0-3.05-2.14-6.75-3.4-10.74-3.4h-69.41c-10.37,0-18.77,8.4-18.77,18.77v105.27c0,1.69,.23,3.32,.65,4.88,.31,1.16-.57,2.3-1.77,2.3-10.37,0-18.77,8.4-18.77,18.77v105.27c0,10.37,8.4,18.77,18.77,18.77h20.64c10.37,0,18.77-8.4,18.77-18.77v-9.13c0-1.56,1.26-2.82,2.82-2.82h9.1c1.68,0,3.04,1.36,3.04,3.04v8.91c0,10.37,8.4,18.77,18.77,18.77h21.74c9.76,0,17.66-7.91,17.66-17.66v-4c0-1.93,2.39-2.81,3.65-1.35,5.66,6.56,12.45,12,20.32,16.23,11.37,6.12,24.16,9.22,38.03,9.22s26.5-3.1,37.87-9.22c10.45-5.62,18.99-13.37,25.46-23.06,.36-.54,.96-.87,1.62-.87h1.46c.74,0,1.4,.42,1.73,1.07,2.57,5.02,5.8,9.62,9.73,13.77,11.5,12.15,28.08,18.31,49.29,18.31s37.77-6.13,49.21-18.23c.59-.63,1.17-1.26,1.73-1.91,.93-1.08,2.69-.71,3.1,.65,1.55,5.15,5.26,9.49,10.32,11.74,5.14,2.29,11.26,4.12,18.19,5.46,7.91,1.52,15.99,2.29,24.02,2.29,18.66,0,32.78-3.9,43.15-11.92,1.13-.87,2.2-1.78,3.21-2.73,.97-.91,2.52-.56,3.03,.67,2.83,6.77,9.51,11.55,17.3,11.55h72.36c10.37,0,18.77-8.4,18.77-18.77v-16.1c0-8.94-6.29-16.45-14.67-18.32-1.16-.26-1.78-1.53-1.25-2.59,1.27-2.53,1.98-5.38,1.98-8.39v-14.47c0-3.01-.71-5.86-1.98-8.39-.53-1.06,.09-2.33,1.25-2.59Z"/>
      <path class="cls-6" d="M757.12,201.44c8.39-1.87,14.67-9.38,14.67-18.32v-16.1c0-10.37-8.4-18.77-18.77-18.77h-12.5c-1.19,0-2.09-1.12-1.78-2.27,1.21-4.42,.76-9.17-1.39-13.41l-10.5-20.66c-.37-.73-.2-1.61,.4-2.18,3.04-2.86,5.69-6.11,7.93-9.74,5.12-8.28,7.71-18.14,7.71-29.32,0-16.86-5.45-30.27-16.19-39.86-10.27-9.15-24.07-13.79-41.03-13.79h-46.88c-4.05,0-7.81,1.29-10.88,3.48-.62,.44-1.46,.44-2.08,0-3.07-2.19-6.83-3.48-10.88-3.48h-72.36c-10.37,0-18.77,8.4-18.77,18.77,0,3.16-2.56,5.72-5.72,5.72h-15.04c-3.16,0-5.72-2.56-5.72-5.72h0c0-10.37-8.4-18.77-18.77-18.77h-20.64c-10.37,0-18.77,8.4-18.77,18.77,0,3.16-2.56,5.72-5.72,5.72h-15.47c-3.16,0-5.72-2.56-5.72-5.72h0c0-10.37-8.4-18.77-18.77-18.77h-20.64c-6.32,0-11.91,3.15-15.31,7.96-.75,1.06-2.28,1.06-3.03,0-3.4-4.81-8.99-7.96-15.31-7.96h-20.64c-3.99,0-7.7,1.26-10.74,3.4-.62,.43-1.44,.43-2.06,0-3.05-2.14-6.75-3.4-10.74-3.4h-69.41c-10.37,0-18.77,8.4-18.77,18.77v105.27c0,1.69,.23,3.32,.65,4.88,.31,1.16-.57,2.3-1.77,2.3-10.37,0-18.77,8.4-18.77,18.77v105.27c0,10.37,8.4,18.77,18.77,18.77h20.64c10.37,0,18.77-8.4,18.77-18.77v-9.13c0-1.56,1.26-2.82,2.82-2.82h9.1c1.68,0,3.04,1.36,3.04,3.04v8.91c0,10.37,8.4,18.77,18.77,18.77h21.74c9.76,0,17.66-7.91,17.66-17.66v-4c0-1.93,2.39-2.81,3.65-1.35,5.66,6.56,12.45,12,20.32,16.23,11.37,6.12,24.16,9.22,38.03,9.22s26.5-3.1,37.87-9.22c10.45-5.62,18.99-13.37,25.46-23.06,.36-.54,.96-.87,1.62-.87h1.46c.74,0,1.4,.42,1.73,1.07,2.57,5.02,5.8,9.62,9.73,13.77,11.5,12.15,28.08,18.31,49.29,18.31s37.77-6.13,49.21-18.23c.59-.63,1.17-1.26,1.73-1.91,.93-1.08,2.69-.71,3.1,.65,1.55,5.15,5.26,9.49,10.32,11.74,5.14,2.29,11.26,4.12,18.19,5.46,7.91,1.52,15.99,2.29,24.02,2.29,18.66,0,32.78-3.9,43.15-11.92,1.13-.87,2.2-1.78,3.21-2.73,.97-.91,2.52-.56,3.03,.67,2.83,6.77,9.51,11.55,17.3,11.55h72.36c10.37,0,18.77-8.4,18.77-18.77v-16.1c0-8.94-6.29-16.45-14.67-18.32-1.16-.26-1.78-1.53-1.25-2.59,1.27-2.53,1.98-5.38,1.98-8.39v-14.47c0-3.01-.71-5.86-1.98-8.39-.53-1.06,.09-2.33,1.25-2.59Z"/>
      <path class="cls-6" d="M758.76,203.08c8.39-1.87,14.67-9.38,14.67-18.32v-16.1c0-10.37-8.4-18.77-18.77-18.77h-12.5c-1.19,0-2.09-1.12-1.78-2.27,1.21-4.42,.76-9.17-1.39-13.41l-10.5-20.66c-.37-.73-.2-1.61,.4-2.18,3.04-2.86,5.69-6.11,7.93-9.74,5.12-8.28,7.71-18.14,7.71-29.32,0-16.86-5.45-30.27-16.19-39.86-10.27-9.15-24.07-13.79-41.03-13.79h-46.88c-4.05,0-7.81,1.29-10.88,3.48-.62,.44-1.46,.44-2.08,0-3.07-2.19-6.83-3.48-10.88-3.48h-72.36c-10.37,0-18.77,8.4-18.77,18.77,0,3.16-2.56,5.72-5.72,5.72h-15.04c-3.16,0-5.72-2.56-5.72-5.72h0c0-10.37-8.4-18.77-18.77-18.77h-20.64c-10.37,0-18.77,8.4-18.77,18.77,0,3.16-2.56,5.72-5.72,5.72h-15.47c-3.16,0-5.72-2.56-5.72-5.72h0c0-10.37-8.4-18.77-18.77-18.77h-20.64c-6.32,0-11.91,3.15-15.31,7.96-.75,1.06-2.28,1.06-3.03,0-3.4-4.81-8.99-7.96-15.31-7.96h-20.64c-3.99,0-7.7,1.26-10.74,3.4-.62,.43-1.44,.43-2.06,0-3.05-2.14-6.75-3.4-10.74-3.4h-69.41c-10.37,0-18.77,8.4-18.77,18.77v105.27c0,1.69,.23,3.32,.65,4.88,.31,1.16-.57,2.3-1.77,2.3-10.37,0-18.77,8.4-18.77,18.77v105.27c0,10.37,8.4,18.77,18.77,18.77h20.64c10.37,0,18.77-8.4,18.77-18.77v-9.13c0-1.56,1.26-2.82,2.82-2.82h9.1c1.68,0,3.04,1.36,3.04,3.04v8.91c0,10.37,8.4,18.77,18.77,18.77h21.74c9.76,0,17.66-7.91,17.66-17.66v-4c0-1.93,2.39-2.81,3.65-1.35,5.66,6.56,12.45,12,20.32,16.23,11.37,6.12,24.16,9.22,38.03,9.22s26.5-3.1,37.87-9.22c10.45-5.62,18.99-13.37,25.46-23.06,.36-.54,.96-.87,1.62-.87h1.46c.74,0,1.4,.42,1.73,1.07,2.57,5.02,5.8,9.62,9.73,13.77,11.5,12.15,28.08,18.31,49.29,18.31s37.77-6.13,49.21-18.23c.59-.63,1.17-1.26,1.73-1.91,.93-1.08,2.69-.71,3.1,.65,1.55,5.15,5.26,9.49,10.32,11.74,5.14,2.29,11.26,4.12,18.19,5.46,7.91,1.52,15.99,2.29,24.02,2.29,18.66,0,32.78-3.9,43.15-11.92,1.13-.87,2.2-1.78,3.21-2.73,.97-.91,2.52-.56,3.03,.67,2.83,6.77,9.51,11.55,17.3,11.55h72.36c10.37,0,18.77-8.4,18.77-18.77v-16.1c0-8.94-6.29-16.45-14.67-18.32-1.16-.26-1.78-1.53-1.25-2.59,1.27-2.53,1.98-5.38,1.98-8.39v-14.47c0-3.01-.71-5.86-1.98-8.39-.53-1.06,.09-2.33,1.25-2.59Z"/>
      <path class="cls-6" d="M760.4,204.72c8.39-1.87,14.67-9.38,14.67-18.32v-16.1c0-10.37-8.4-18.77-18.77-18.77h-12.5c-1.19,0-2.09-1.12-1.78-2.27,1.21-4.42,.76-9.17-1.39-13.41l-10.5-20.66c-.37-.73-.2-1.61,.4-2.18,3.04-2.86,5.69-6.11,7.93-9.74,5.12-8.28,7.71-18.14,7.71-29.32,0-16.86-5.45-30.27-16.19-39.86-10.27-9.15-24.07-13.79-41.03-13.79h-46.88c-4.05,0-7.81,1.29-10.88,3.48-.62,.44-1.46,.44-2.08,0-3.07-2.19-6.83-3.48-10.88-3.48h-72.36c-10.37,0-18.77,8.4-18.77,18.77,0,3.16-2.56,5.72-5.72,5.72h-15.04c-3.16,0-5.72-2.56-5.72-5.72h0c0-10.37-8.4-18.77-18.77-18.77h-20.64c-10.37,0-18.77,8.4-18.77,18.77,0,3.16-2.56,5.72-5.72,5.72h-15.47c-3.16,0-5.72-2.56-5.72-5.72h0c0-10.37-8.4-18.77-18.77-18.77h-20.64c-6.32,0-11.91,3.15-15.31,7.96-.75,1.06-2.28,1.06-3.03,0-3.4-4.81-8.99-7.96-15.31-7.96h-20.64c-3.99,0-7.7,1.26-10.74,3.4-.62,.43-1.44,.43-2.06,0-3.05-2.14-6.75-3.4-10.74-3.4h-69.41c-10.37,0-18.77,8.4-18.77,18.77v105.27c0,1.69,.23,3.32,.65,4.88,.31,1.16-.57,2.3-1.77,2.3-10.37,0-18.77,8.4-18.77,18.77v105.27c0,10.37,8.4,18.77,18.77,18.77h20.64c10.37,0,18.77-8.4,18.77-18.77v-9.13c0-1.56,1.26-2.82,2.82-2.82h9.1c1.68,0,3.04,1.36,3.04,3.04v8.91c0,10.37,8.4,18.77,18.77,18.77h21.74c9.76,0,17.66-7.91,17.66-17.66v-4c0-1.93,2.39-2.81,3.65-1.35,5.66,6.56,12.45,12,20.32,16.23,11.37,6.12,24.16,9.22,38.03,9.22s26.5-3.1,37.87-9.22c10.45-5.62,18.99-13.37,25.46-23.06,.36-.54,.96-.87,1.62-.87h1.46c.74,0,1.4,.42,1.73,1.07,2.57,5.02,5.8,9.62,9.73,13.77,11.5,12.15,28.08,18.31,49.29,18.31s37.77-6.13,49.21-18.23c.59-.63,1.17-1.26,1.73-1.91,.93-1.08,2.69-.71,3.1,.65,1.55,5.15,5.26,9.49,10.32,11.74,5.14,2.29,11.26,4.12,18.19,5.46,7.91,1.52,15.99,2.29,24.02,2.29,18.66,0,32.78-3.9,43.15-11.92,1.13-.87,2.2-1.78,3.21-2.73,.97-.91,2.52-.56,3.03,.67,2.83,6.77,9.51,11.55,17.3,11.55h72.36c10.37,0,18.77-8.4,18.77-18.77v-16.1c0-8.94-6.29-16.45-14.67-18.32-1.16-.26-1.78-1.53-1.25-2.59,1.27-2.53,1.98-5.38,1.98-8.39v-14.47c0-3.01-.71-5.86-1.98-8.39-.53-1.06,.09-2.33,1.25-2.59Z"/>
      <path class="cls-6" d="M762.05,206.36c8.39-1.87,14.67-9.38,14.67-18.32v-16.1c0-10.37-8.4-18.77-18.77-18.77h-12.5c-1.19,0-2.09-1.12-1.78-2.27,1.21-4.42,.76-9.17-1.39-13.41l-10.5-20.66c-.37-.73-.2-1.61,.4-2.18,3.04-2.86,5.69-6.11,7.93-9.74,5.12-8.28,7.71-18.14,7.71-29.32,0-16.86-5.45-30.27-16.19-39.86-10.27-9.15-24.07-13.79-41.03-13.79h-46.88c-4.05,0-7.81,1.29-10.88,3.48-.62,.44-1.46,.44-2.08,0-3.07-2.19-6.83-3.48-10.88-3.48h-72.36c-10.37,0-18.77,8.4-18.77,18.77,0,3.16-2.56,5.72-5.72,5.72h-15.04c-3.16,0-5.72-2.56-5.72-5.72h0c0-10.37-8.4-18.77-18.77-18.77h-20.64c-10.37,0-18.77,8.4-18.77,18.77,0,3.16-2.56,5.72-5.72,5.72h-15.47c-3.16,0-5.72-2.56-5.72-5.72h0c0-10.37-8.4-18.77-18.77-18.77h-20.64c-6.32,0-11.91,3.15-15.31,7.96-.75,1.06-2.28,1.06-3.03,0-3.4-4.81-8.99-7.96-15.31-7.96h-20.64c-3.99,0-7.7,1.26-10.74,3.4-.62,.43-1.44,.43-2.06,0-3.05-2.14-6.75-3.4-10.74-3.4h-69.41c-10.37,0-18.77,8.4-18.77,18.77v105.27c0,1.69,.23,3.32,.65,4.88,.31,1.16-.57,2.3-1.77,2.3-10.37,0-18.77,8.4-18.77,18.77v105.27c0,10.37,8.4,18.77,18.77,18.77h20.64c10.37,0,18.77-8.4,18.77-18.77v-9.13c0-1.56,1.26-2.82,2.82-2.82h9.1c1.68,0,3.04,1.36,3.04,3.04v8.91c0,10.37,8.4,18.77,18.77,18.77h21.74c9.76,0,17.66-7.91,17.66-17.66v-4c0-1.93,2.39-2.81,3.65-1.35,5.66,6.56,12.45,12,20.32,16.23,11.37,6.12,24.16,9.22,38.03,9.22s26.5-3.1,37.87-9.22c10.45-5.62,18.99-13.37,25.46-23.06,.36-.54,.96-.87,1.62-.87h1.46c.74,0,1.4,.42,1.73,1.07,2.57,5.02,5.8,9.62,9.73,13.77,11.5,12.15,28.08,18.31,49.29,18.31s37.77-6.13,49.21-18.23c.59-.63,1.17-1.26,1.73-1.91,.93-1.08,2.69-.71,3.1,.65,1.55,5.15,5.26,9.49,10.32,11.74,5.14,2.29,11.26,4.12,18.19,5.46,7.91,1.52,15.99,2.29,24.02,2.29,18.66,0,32.78-3.9,43.15-11.92,1.13-.87,2.2-1.78,3.21-2.73,.97-.91,2.52-.56,3.03,.67,2.83,6.77,9.51,11.55,17.3,11.55h72.36c10.37,0,18.77-8.4,18.77-18.77v-16.1c0-8.94-6.29-16.45-14.67-18.32-1.16-.26-1.78-1.53-1.25-2.59,1.27-2.53,1.98-5.38,1.98-8.39v-14.47c0-3.01-.71-5.86-1.98-8.39-.53-1.06,.09-2.33,1.25-2.59Z"/>
      <path class="cls-6" d="M763.69,208c8.39-1.87,14.67-9.38,14.67-18.32v-16.1c0-10.37-8.4-18.77-18.77-18.77h-12.5c-1.19,0-2.09-1.12-1.78-2.27,1.21-4.42,.76-9.17-1.39-13.41l-10.5-20.66c-.37-.73-.2-1.61,.4-2.18,3.04-2.86,5.69-6.11,7.93-9.74,5.12-8.28,7.71-18.14,7.71-29.32,0-16.86-5.45-30.27-16.19-39.86-10.27-9.15-24.07-13.79-41.03-13.79h-46.88c-4.05,0-7.81,1.29-10.88,3.48-.62,.44-1.46,.44-2.08,0-3.07-2.19-6.83-3.48-10.88-3.48h-72.36c-10.37,0-18.77,8.4-18.77,18.77,0,3.16-2.56,5.72-5.72,5.72h-15.04c-3.16,0-5.72-2.56-5.72-5.72h0c0-10.37-8.4-18.77-18.77-18.77h-20.64c-10.37,0-18.77,8.4-18.77,18.77,0,3.16-2.56,5.72-5.72,5.72h-15.47c-3.16,0-5.72-2.56-5.72-5.72h0c0-10.37-8.4-18.77-18.77-18.77h-20.64c-6.32,0-11.91,3.15-15.31,7.96-.75,1.06-2.28,1.06-3.03,0-3.4-4.81-8.99-7.96-15.31-7.96h-20.64c-3.99,0-7.7,1.26-10.74,3.4-.62,.43-1.44,.43-2.06,0-3.05-2.14-6.75-3.4-10.74-3.4h-69.41c-10.37,0-18.77,8.4-18.77,18.77v105.27c0,1.69,.23,3.32,.65,4.88,.31,1.16-.57,2.3-1.77,2.3-10.37,0-18.77,8.4-18.77,18.77v105.27c0,10.37,8.4,18.77,18.77,18.77h20.64c10.37,0,18.77-8.4,18.77-18.77v-9.13c0-1.56,1.26-2.82,2.82-2.82h9.1c1.68,0,3.04,1.36,3.04,3.04v8.91c0,10.37,8.4,18.77,18.77,18.77h21.74c9.76,0,17.66-7.91,17.66-17.66v-4c0-1.93,2.39-2.81,3.65-1.35,5.66,6.56,12.45,12,20.32,16.23,11.37,6.12,24.16,9.22,38.03,9.22s26.5-3.1,37.87-9.22c10.45-5.62,18.99-13.37,25.46-23.06,.36-.54,.96-.87,1.62-.87h1.46c.74,0,1.4,.42,1.73,1.07,2.57,5.02,5.8,9.62,9.73,13.77,11.5,12.15,28.08,18.31,49.29,18.31s37.77-6.13,49.21-18.23c.59-.63,1.17-1.26,1.73-1.91,.93-1.08,2.69-.71,3.1,.65,1.55,5.15,5.26,9.49,10.32,11.74,5.14,2.29,11.26,4.12,18.19,5.46,7.91,1.52,15.99,2.29,24.02,2.29,18.66,0,32.78-3.9,43.15-11.92,1.13-.87,2.2-1.78,3.21-2.73,.97-.91,2.52-.56,3.03,.67,2.83,6.77,9.51,11.55,17.3,11.55h72.36c10.37,0,18.77-8.4,18.77-18.77v-16.1c0-8.94-6.29-16.45-14.67-18.32-1.16-.26-1.78-1.53-1.25-2.59,1.27-2.53,1.98-5.38,1.98-8.39v-14.47c0-3.01-.71-5.86-1.98-8.39-.53-1.06,.09-2.33,1.25-2.59Z"/>
      <path class="cls-6" d="M765.33,209.64c8.39-1.87,14.67-9.38,14.67-18.32v-16.1c0-10.37-8.4-18.77-18.77-18.77h-12.5c-1.19,0-2.09-1.12-1.78-2.27,1.21-4.42,.76-9.17-1.39-13.41l-10.5-20.66c-.37-.73-.2-1.61,.4-2.18,3.04-2.86,5.69-6.11,7.93-9.74,5.12-8.28,7.71-18.14,7.71-29.32,0-16.86-5.45-30.27-16.19-39.86-10.27-9.15-24.07-13.79-41.03-13.79h-46.88c-4.05,0-7.81,1.29-10.88,3.48-.62,.44-1.46,.44-2.08,0-3.07-2.19-6.83-3.48-10.88-3.48h-72.36c-10.37,0-18.77,8.4-18.77,18.77,0,3.16-2.56,5.72-5.72,5.72h-15.04c-3.16,0-5.72-2.56-5.72-5.72h0c0-10.37-8.4-18.77-18.77-18.77h-20.64c-10.37,0-18.77,8.4-18.77,18.77,0,3.16-2.56,5.72-5.72,5.72h-15.47c-3.16,0-5.72-2.56-5.72-5.72h0c0-10.37-8.4-18.77-18.77-18.77h-20.64c-6.32,0-11.91,3.15-15.31,7.96-.75,1.06-2.28,1.06-3.03,0-3.4-4.81-8.99-7.96-15.31-7.96h-20.64c-3.99,0-7.7,1.26-10.74,3.4-.62,.43-1.44,.43-2.06,0-3.05-2.14-6.75-3.4-10.74-3.4h-69.41c-10.37,0-18.77,8.4-18.77,18.77v105.27c0,1.69,.23,3.32,.65,4.88,.31,1.16-.57,2.3-1.77,2.3-10.37,0-18.77,8.4-18.77,18.77v105.27c0,10.37,8.4,18.77,18.77,18.77h20.64c10.37,0,18.77-8.4,18.77-18.77v-9.13c0-1.56,1.26-2.82,2.82-2.82h9.1c1.68,0,3.04,1.36,3.04,3.04v8.91c0,10.37,8.4,18.77,18.77,18.77h21.74c9.76,0,17.66-7.91,17.66-17.66v-4c0-1.93,2.39-2.81,3.65-1.35,5.66,6.56,12.45,12,20.32,16.23,11.37,6.12,24.16,9.22,38.03,9.22s26.5-3.1,37.87-9.22c10.45-5.62,18.99-13.37,25.46-23.06,.36-.54,.96-.87,1.62-.87h1.46c.74,0,1.4,.42,1.73,1.07,2.57,5.02,5.8,9.62,9.73,13.77,11.5,12.15,28.08,18.31,49.29,18.31s37.77-6.13,49.21-18.23c.59-.63,1.17-1.26,1.73-1.91,.93-1.08,2.69-.71,3.1,.65,1.55,5.15,5.26,9.49,10.32,11.74,5.14,2.29,11.26,4.12,18.19,5.46,7.91,1.52,15.99,2.29,24.02,2.29,18.66,0,32.78-3.9,43.15-11.92,1.13-.87,2.2-1.78,3.21-2.73,.97-.91,2.52-.56,3.03,.67,2.83,6.77,9.51,11.55,17.3,11.55h72.36c10.37,0,18.77-8.4,18.77-18.77v-16.1c0-8.94-6.29-16.45-14.67-18.32-1.16-.26-1.78-1.53-1.25-2.59,1.27-2.53,1.98-5.38,1.98-8.39v-14.47c0-3.01-.71-5.86-1.98-8.39-.53-1.06,.09-2.33,1.25-2.59Z"/>
      <path class="cls-6" d="M766.97,211.28c8.39-1.87,14.67-9.38,14.67-18.32v-16.1c0-10.37-8.4-18.77-18.77-18.77h-12.5c-1.19,0-2.09-1.12-1.78-2.27,1.21-4.42,.76-9.17-1.39-13.41l-10.5-20.66c-.37-.73-.2-1.61,.4-2.18,3.04-2.86,5.69-6.11,7.93-9.74,5.12-8.28,7.71-18.14,7.71-29.32,0-16.86-5.45-30.27-16.19-39.86-10.27-9.15-24.07-13.79-41.03-13.79h-46.88c-4.05,0-7.81,1.29-10.88,3.48-.62,.44-1.46,.44-2.08,0-3.07-2.19-6.83-3.48-10.88-3.48h-72.36c-10.37,0-18.77,8.4-18.77,18.77,0,3.16-2.56,5.72-5.72,5.72h-15.04c-3.16,0-5.72-2.56-5.72-5.72h0c0-10.37-8.4-18.77-18.77-18.77h-20.64c-10.37,0-18.77,8.4-18.77,18.77,0,3.16-2.56,5.72-5.72,5.72h-15.47c-3.16,0-5.72-2.56-5.72-5.72h0c0-10.37-8.4-18.77-18.77-18.77h-20.64c-6.32,0-11.91,3.15-15.31,7.96-.75,1.06-2.28,1.06-3.03,0-3.4-4.81-8.99-7.96-15.31-7.96h-20.64c-3.99,0-7.7,1.26-10.74,3.4-.62,.43-1.44,.43-2.06,0-3.05-2.14-6.75-3.4-10.74-3.4h-69.41c-10.37,0-18.77,8.4-18.77,18.77v105.27c0,1.69,.23,3.32,.65,4.88,.31,1.16-.57,2.3-1.77,2.3-10.37,0-18.77,8.4-18.77,18.77v105.27c0,10.37,8.4,18.77,18.77,18.77h20.64c10.37,0,18.77-8.4,18.77-18.77v-9.13c0-1.56,1.26-2.82,2.82-2.82h9.1c1.68,0,3.04,1.36,3.04,3.04v8.91c0,10.37,8.4,18.77,18.77,18.77h21.74c9.76,0,17.66-7.91,17.66-17.66v-4c0-1.93,2.39-2.81,3.65-1.35,5.66,6.56,12.45,12,20.32,16.23,11.37,6.12,24.16,9.22,38.03,9.22s26.5-3.1,37.87-9.22c10.45-5.62,18.99-13.37,25.46-23.06,.36-.54,.96-.87,1.62-.87h1.46c.74,0,1.4,.42,1.73,1.07,2.57,5.02,5.8,9.62,9.73,13.77,11.5,12.15,28.08,18.31,49.29,18.31s37.77-6.13,49.21-18.23c.59-.63,1.17-1.26,1.73-1.91,.93-1.08,2.69-.71,3.1,.65,1.55,5.15,5.26,9.49,10.32,11.74,5.14,2.29,11.26,4.12,18.19,5.46,7.91,1.52,15.99,2.29,24.02,2.29,18.66,0,32.78-3.9,43.15-11.92,1.13-.87,2.2-1.78,3.21-2.73,.97-.91,2.52-.56,3.03,.67,2.83,6.77,9.51,11.55,17.3,11.55h72.36c10.37,0,18.77-8.4,18.77-18.77v-16.1c0-8.94-6.29-16.45-14.67-18.32-1.16-.26-1.78-1.53-1.25-2.59,1.27-2.53,1.98-5.38,1.98-8.39v-14.47c0-3.01-.71-5.86-1.98-8.39-.53-1.06,.09-2.33,1.25-2.59Z"/>
      <path class="cls-6" d="M768.61,212.93c8.39-1.87,14.67-9.38,14.67-18.32v-16.1c0-10.37-8.4-18.77-18.77-18.77h-12.5c-1.19,0-2.09-1.12-1.78-2.27,1.21-4.42,.76-9.17-1.39-13.41l-10.5-20.66c-.37-.73-.2-1.61,.4-2.18,3.04-2.86,5.69-6.11,7.93-9.74,5.12-8.28,7.71-18.14,7.71-29.32,0-16.86-5.45-30.27-16.19-39.86-10.27-9.15-24.07-13.79-41.03-13.79h-46.88c-4.05,0-7.81,1.29-10.88,3.48-.62,.44-1.46,.44-2.08,0-3.07-2.19-6.83-3.48-10.88-3.48h-72.36c-10.37,0-18.77,8.4-18.77,18.77,0,3.16-2.56,5.72-5.72,5.72h-15.04c-3.16,0-5.72-2.56-5.72-5.72h0c0-10.37-8.4-18.77-18.77-18.77h-20.64c-10.37,0-18.77,8.4-18.77,18.77,0,3.16-2.56,5.72-5.72,5.72h-15.47c-3.16,0-5.72-2.56-5.72-5.72h0c0-10.37-8.4-18.77-18.77-18.77h-20.64c-6.32,0-11.91,3.15-15.31,7.96-.75,1.06-2.28,1.06-3.03,0-3.4-4.81-8.99-7.96-15.31-7.96h-20.64c-3.99,0-7.7,1.26-10.74,3.4-.62,.43-1.44,.43-2.06,0-3.05-2.14-6.75-3.4-10.74-3.4h-69.41c-10.37,0-18.77,8.4-18.77,18.77v105.27c0,1.69,.23,3.32,.65,4.88,.31,1.16-.57,2.3-1.77,2.3-10.37,0-18.77,8.4-18.77,18.77v105.27c0,10.37,8.4,18.77,18.77,18.77h20.64c10.37,0,18.77-8.4,18.77-18.77v-9.13c0-1.56,1.26-2.82,2.82-2.82h9.1c1.68,0,3.04,1.36,3.04,3.04v8.91c0,10.37,8.4,18.77,18.77,18.77h21.74c9.76,0,17.66-7.91,17.66-17.66v-4c0-1.93,2.39-2.81,3.65-1.35,5.66,6.56,12.45,12,20.32,16.23,11.37,6.12,24.16,9.22,38.03,9.22s26.5-3.1,37.87-9.22c10.45-5.62,18.99-13.37,25.46-23.06,.36-.54,.96-.87,1.62-.87h1.46c.74,0,1.4,.42,1.73,1.07,2.57,5.02,5.8,9.62,9.73,13.77,11.5,12.15,28.08,18.31,49.29,18.31s37.77-6.13,49.21-18.23c.59-.63,1.17-1.26,1.73-1.91,.93-1.08,2.69-.71,3.1,.65,1.55,5.15,5.26,9.49,10.32,11.74,5.14,2.29,11.26,4.12,18.19,5.46,7.91,1.52,15.99,2.29,24.02,2.29,18.66,0,32.78-3.9,43.15-11.92,1.13-.87,2.2-1.78,3.21-2.73,.97-.91,2.52-.56,3.03,.67,2.83,6.77,9.51,11.55,17.3,11.55h72.36c10.37,0,18.77-8.4,18.77-18.77v-16.1c0-8.94-6.29-16.45-14.67-18.32-1.16-.26-1.78-1.53-1.25-2.59,1.27-2.53,1.98-5.38,1.98-8.39v-14.47c0-3.01-.71-5.86-1.98-8.39-.53-1.06,.09-2.33,1.25-2.59Z"/>
      <path class="cls-6" d="M770.25,214.57c8.39-1.87,14.67-9.38,14.67-18.32v-16.1c0-10.37-8.4-18.77-18.77-18.77h-12.5c-1.19,0-2.09-1.12-1.78-2.27,1.21-4.42,.76-9.17-1.39-13.41l-10.5-20.66c-.37-.73-.2-1.61,.4-2.18,3.04-2.86,5.69-6.11,7.93-9.74,5.12-8.28,7.71-18.14,7.71-29.32,0-16.86-5.45-30.27-16.19-39.86-10.27-9.15-24.07-13.79-41.03-13.79h-46.88c-4.05,0-7.81,1.29-10.88,3.48-.62,.44-1.46,.44-2.08,0-3.07-2.19-6.83-3.48-10.88-3.48h-72.36c-10.37,0-18.77,8.4-18.77,18.77,0,3.16-2.56,5.72-5.72,5.72h-15.04c-3.16,0-5.72-2.56-5.72-5.72h0c0-10.37-8.4-18.77-18.77-18.77h-20.64c-10.37,0-18.77,8.4-18.77,18.77,0,3.16-2.56,5.72-5.72,5.72h-15.47c-3.16,0-5.72-2.56-5.72-5.72h0c0-10.37-8.4-18.77-18.77-18.77h-20.64c-6.32,0-11.91,3.15-15.31,7.96-.75,1.06-2.28,1.06-3.03,0-3.4-4.81-8.99-7.96-15.31-7.96h-20.64c-3.99,0-7.7,1.26-10.74,3.4-.62,.43-1.44,.43-2.06,0-3.05-2.14-6.75-3.4-10.74-3.4h-69.41c-10.37,0-18.77,8.4-18.77,18.77v105.27c0,1.69,.23,3.32,.65,4.88,.31,1.16-.57,2.3-1.77,2.3-10.37,0-18.77,8.4-18.77,18.77v105.27c0,10.37,8.4,18.77,18.77,18.77h20.64c10.37,0,18.77-8.4,18.77-18.77v-9.13c0-1.56,1.26-2.82,2.82-2.82h9.1c1.68,0,3.04,1.36,3.04,3.04v8.91c0,10.37,8.4,18.77,18.77,18.77h21.74c9.76,0,17.66-7.91,17.66-17.66v-4c0-1.93,2.39-2.81,3.65-1.35,5.66,6.56,12.45,12,20.32,16.23,11.37,6.12,24.16,9.22,38.03,9.22s26.5-3.1,37.87-9.22c10.45-5.62,18.99-13.37,25.46-23.06,.36-.54,.96-.87,1.62-.87h1.46c.74,0,1.4,.42,1.73,1.07,2.57,5.02,5.8,9.62,9.73,13.77,11.5,12.15,28.08,18.31,49.29,18.31s37.77-6.13,49.21-18.23c.59-.63,1.17-1.26,1.73-1.91,.93-1.08,2.69-.71,3.1,.65,1.55,5.15,5.26,9.49,10.32,11.74,5.14,2.29,11.26,4.12,18.19,5.46,7.91,1.52,15.99,2.29,24.02,2.29,18.66,0,32.78-3.9,43.15-11.92,1.13-.87,2.2-1.78,3.21-2.73,.97-.91,2.52-.56,3.03,.67,2.83,6.77,9.51,11.55,17.3,11.55h72.36c10.37,0,18.77-8.4,18.77-18.77v-16.1c0-8.94-6.29-16.45-14.67-18.32-1.16-.26-1.78-1.53-1.25-2.59,1.27-2.53,1.98-5.38,1.98-8.39v-14.47c0-3.01-.71-5.86-1.98-8.39-.53-1.06,.09-2.33,1.25-2.59Z"/>
      <path class="cls-6" d="M771.89,216.21c8.39-1.87,14.67-9.38,14.67-18.32v-16.1c0-10.37-8.4-18.77-18.77-18.77h-12.5c-1.19,0-2.09-1.12-1.78-2.27,1.21-4.42,.76-9.17-1.39-13.41l-10.5-20.66c-.37-.73-.2-1.61,.4-2.18,3.04-2.86,5.69-6.11,7.93-9.74,5.12-8.28,7.71-18.14,7.71-29.32,0-16.86-5.45-30.27-16.19-39.86-10.27-9.15-24.07-13.79-41.03-13.79h-46.88c-4.05,0-7.81,1.29-10.88,3.48-.62,.44-1.46,.44-2.08,0-3.07-2.19-6.83-3.48-10.88-3.48h-72.36c-10.37,0-18.77,8.4-18.77,18.77,0,3.16-2.56,5.72-5.72,5.72h-15.04c-3.16,0-5.72-2.56-5.72-5.72h0c0-10.37-8.4-18.77-18.77-18.77h-20.64c-10.37,0-18.77,8.4-18.77,18.77,0,3.16-2.56,5.72-5.72,5.72h-15.47c-3.16,0-5.72-2.56-5.72-5.72h0c0-10.37-8.4-18.77-18.77-18.77h-20.64c-6.32,0-11.91,3.15-15.31,7.96-.75,1.06-2.28,1.06-3.03,0-3.4-4.81-8.99-7.96-15.31-7.96h-20.64c-3.99,0-7.7,1.26-10.74,3.4-.62,.43-1.44,.43-2.06,0-3.05-2.14-6.75-3.4-10.74-3.4h-69.41c-10.37,0-18.77,8.4-18.77,18.77v105.27c0,1.69,.23,3.32,.65,4.88,.31,1.16-.57,2.3-1.77,2.3-10.37,0-18.77,8.4-18.77,18.77v105.27c0,10.37,8.4,18.77,18.77,18.77h20.64c10.37,0,18.77-8.4,18.77-18.77v-9.13c0-1.56,1.26-2.82,2.82-2.82h9.1c1.68,0,3.04,1.36,3.04,3.04v8.91c0,10.37,8.4,18.77,18.77,18.77h21.74c9.76,0,17.66-7.91,17.66-17.66v-4c0-1.93,2.39-2.81,3.65-1.35,5.66,6.56,12.45,12,20.32,16.23,11.37,6.12,24.16,9.22,38.03,9.22s26.5-3.1,37.87-9.22c10.45-5.62,18.99-13.37,25.46-23.06,.36-.54,.96-.87,1.62-.87h1.46c.74,0,1.4,.42,1.73,1.07,2.57,5.02,5.8,9.62,9.73,13.77,11.5,12.15,28.08,18.31,49.29,18.31s37.77-6.13,49.21-18.23c.59-.63,1.17-1.26,1.73-1.91,.93-1.08,2.69-.71,3.1,.65,1.55,5.15,5.26,9.49,10.32,11.74,5.14,2.29,11.26,4.12,18.19,5.46,7.91,1.52,15.99,2.29,24.02,2.29,18.66,0,32.78-3.9,43.15-11.92,1.13-.87,2.2-1.78,3.21-2.73,.97-.91,2.52-.56,3.03,.67,2.83,6.77,9.51,11.55,17.3,11.55h72.36c10.37,0,18.77-8.4,18.77-18.77v-16.1c0-8.94-6.29-16.45-14.67-18.32-1.16-.26-1.78-1.53-1.25-2.59,1.27-2.53,1.98-5.38,1.98-8.39v-14.47c0-3.01-.71-5.86-1.98-8.39-.53-1.06,.09-2.33,1.25-2.59Z"/>
      <path class="cls-6" d="M773.53,217.85c8.39-1.87,14.67-9.38,14.67-18.32v-16.1c0-10.37-8.4-18.77-18.77-18.77h-12.5c-1.19,0-2.09-1.12-1.78-2.27,1.21-4.42,.76-9.17-1.39-13.41l-10.5-20.66c-.37-.73-.2-1.61,.4-2.18,3.04-2.86,5.69-6.11,7.93-9.74,5.12-8.28,7.71-18.14,7.71-29.32,0-16.86-5.45-30.27-16.19-39.86-10.27-9.15-24.07-13.79-41.03-13.79h-46.88c-4.05,0-7.81,1.29-10.88,3.48-.62,.44-1.46,.44-2.08,0-3.07-2.19-6.83-3.48-10.88-3.48h-72.36c-10.37,0-18.77,8.4-18.77,18.77,0,3.16-2.56,5.72-5.72,5.72h-15.04c-3.16,0-5.72-2.56-5.72-5.72h0c0-10.37-8.4-18.77-18.77-18.77h-20.64c-10.37,0-18.77,8.4-18.77,18.77,0,3.16-2.56,5.72-5.72,5.72h-15.47c-3.16,0-5.72-2.56-5.72-5.72h0c0-10.37-8.4-18.77-18.77-18.77h-20.64c-6.32,0-11.91,3.15-15.31,7.96-.75,1.06-2.28,1.06-3.03,0-3.4-4.81-8.99-7.96-15.31-7.96h-20.64c-3.99,0-7.7,1.26-10.74,3.4-.62,.43-1.44,.43-2.06,0-3.05-2.14-6.75-3.4-10.74-3.4h-69.41c-10.37,0-18.77,8.4-18.77,18.77v105.27c0,1.69,.23,3.32,.65,4.88,.31,1.16-.57,2.3-1.77,2.3-10.37,0-18.77,8.4-18.77,18.77v105.27c0,10.37,8.4,18.77,18.77,18.77h20.64c10.37,0,18.77-8.4,18.77-18.77v-9.13c0-1.56,1.26-2.82,2.82-2.82h9.1c1.68,0,3.04,1.36,3.04,3.04v8.91c0,10.37,8.4,18.77,18.77,18.77h21.74c9.76,0,17.66-7.91,17.66-17.66v-4c0-1.93,2.39-2.81,3.65-1.35,5.66,6.56,12.45,12,20.32,16.23,11.37,6.12,24.16,9.22,38.03,9.22s26.5-3.1,37.87-9.22c10.45-5.62,18.99-13.37,25.46-23.06,.36-.54,.96-.87,1.62-.87h1.46c.74,0,1.4,.42,1.73,1.07,2.57,5.02,5.8,9.62,9.73,13.77,11.5,12.15,28.08,18.31,49.29,18.31s37.77-6.13,49.21-18.23c.59-.63,1.17-1.26,1.73-1.91,.93-1.08,2.69-.71,3.1,.65,1.55,5.15,5.26,9.49,10.32,11.74,5.14,2.29,11.26,4.12,18.19,5.46,7.91,1.52,15.99,2.29,24.02,2.29,18.66,0,32.78-3.9,43.15-11.92,1.13-.87,2.2-1.78,3.21-2.73,.97-.91,2.52-.56,3.03,.67,2.83,6.77,9.51,11.55,17.3,11.55h72.36c10.37,0,18.77-8.4,18.77-18.77v-16.1c0-8.94-6.29-16.45-14.67-18.32-1.16-.26-1.78-1.53-1.25-2.59,1.27-2.53,1.98-5.38,1.98-8.39v-14.47c0-3.01-.71-5.86-1.98-8.39-.53-1.06,.09-2.33,1.25-2.59Z"/>
      <path class="cls-6" d="M775.17,219.49c8.39-1.87,14.67-9.38,14.67-18.32v-16.1c0-10.37-8.4-18.77-18.77-18.77h-12.5c-1.19,0-2.09-1.12-1.78-2.27,1.21-4.42,.76-9.17-1.39-13.41l-10.5-20.66c-.37-.73-.2-1.61,.4-2.18,3.04-2.86,5.69-6.11,7.93-9.74,5.12-8.28,7.71-18.14,7.71-29.32,0-16.86-5.45-30.27-16.19-39.86-10.27-9.15-24.07-13.79-41.03-13.79h-46.88c-4.05,0-7.81,1.29-10.88,3.48-.62,.44-1.46,.44-2.08,0-3.07-2.19-6.83-3.48-10.88-3.48h-72.36c-10.37,0-18.77,8.4-18.77,18.77,0,3.16-2.56,5.72-5.72,5.72h-15.04c-3.16,0-5.72-2.56-5.72-5.72h0c0-10.37-8.4-18.77-18.77-18.77h-20.64c-10.37,0-18.77,8.4-18.77,18.77,0,3.16-2.56,5.72-5.72,5.72h-15.47c-3.16,0-5.72-2.56-5.72-5.72h0c0-10.37-8.4-18.77-18.77-18.77h-20.64c-6.32,0-11.91,3.15-15.31,7.96-.75,1.06-2.28,1.06-3.03,0-3.4-4.81-8.99-7.96-15.31-7.96h-20.64c-3.99,0-7.7,1.26-10.74,3.4-.62,.43-1.44,.43-2.06,0-3.05-2.14-6.75-3.4-10.74-3.4h-69.41c-10.37,0-18.77,8.4-18.77,18.77v105.27c0,1.69,.23,3.32,.65,4.88,.31,1.16-.57,2.3-1.77,2.3-10.37,0-18.77,8.4-18.77,18.77v105.27c0,10.37,8.4,18.77,18.77,18.77h20.64c10.37,0,18.77-8.4,18.77-18.77v-9.13c0-1.56,1.26-2.82,2.82-2.82h9.1c1.68,0,3.04,1.36,3.04,3.04v8.91c0,10.37,8.4,18.77,18.77,18.77h21.74c9.76,0,17.66-7.91,17.66-17.66v-4c0-1.93,2.39-2.81,3.65-1.35,5.66,6.56,12.45,12,20.32,16.23,11.37,6.12,24.16,9.22,38.03,9.22s26.5-3.1,37.87-9.22c10.45-5.62,18.99-13.37,25.46-23.06,.36-.54,.96-.87,1.62-.87h1.46c.74,0,1.4,.42,1.73,1.07,2.57,5.02,5.8,9.62,9.73,13.77,11.5,12.15,28.08,18.31,49.29,18.31s37.77-6.13,49.21-18.23c.59-.63,1.17-1.26,1.73-1.91,.93-1.08,2.69-.71,3.1,.65,1.55,5.15,5.26,9.49,10.32,11.74,5.14,2.29,11.26,4.12,18.19,5.46,7.91,1.52,15.99,2.29,24.02,2.29,18.66,0,32.78-3.9,43.15-11.92,1.13-.87,2.2-1.78,3.21-2.73,.97-.91,2.52-.56,3.03,.67,2.83,6.77,9.51,11.55,17.3,11.55h72.36c10.37,0,18.77-8.4,18.77-18.77v-16.1c0-8.94-6.29-16.45-14.67-18.32-1.16-.26-1.78-1.53-1.25-2.59,1.27-2.53,1.98-5.38,1.98-8.39v-14.47c0-3.01-.71-5.86-1.98-8.39-.53-1.06,.09-2.33,1.25-2.59Z"/>
    </g>
    <path class="cls-4" d="M526.2,128.7h69.41c2.23,0,4.03-1.81,4.03-4.03v-16.1c0-2.23-1.8-4.03-4.03-4.03h-40.71c-2.23,0-4.03-1.8-4.03-4.03v-13.18c0-2.23,1.8-4.03,4.03-4.03h29.72c2.23,0,4.03-1.8,4.03-4.03v-14.47c0-2.23-1.8-4.03-4.03-4.03h-29.72c-2.23,0-4.03-1.8-4.03-4.03v-13.18c0-2.23,1.8-4.03,4.03-4.03h43.66c2.23,0,4.03-1.8,4.03-4.03V19.39c0-2.23-1.8-4.03-4.03-4.03h-72.36c-2.23,0-4.03,1.81-4.03,4.03V124.66c0,2.23,1.8,4.03,4.03,4.03Z"/>
    <path class="cls-4" d="M664.4,95.4l15.76,31.09c.69,1.36,2.08,2.21,3.6,2.21h20.46c3.01,0,4.96-3.18,3.59-5.86l-15.29-30.09c-.97-1.9-.3-4.26,1.56-5.3,5.08-2.84,9.14-6.71,12.16-11.61,3.67-5.94,5.51-13.13,5.51-21.56,0-12.54-3.76-22.16-11.27-28.86-7.51-6.7-17.92-10.05-31.21-10.05h-46.88c-2.23,0-4.03,1.81-4.03,4.03V124.66c0,2.23,1.8,4.03,4.03,4.03h20.64c2.23,0,4.03-1.81,4.03-4.03v-27.45c0-2.23,1.8-4.03,4.03-4.03h9.71c1.52,0,2.91,.85,3.6,2.21Zm-17.33-30.4v-21.45c0-2.23,1.8-4.03,4.03-4.03h13.16c5.84,0,10.3,1.05,13.38,3.16,3.08,2.11,4.62,5.98,4.62,11.59s-1.57,9.22-4.7,11.43c-3.14,2.22-7.57,3.32-13.3,3.32h-13.16c-2.23,0-4.03-1.8-4.03-4.03Z"/>
    <path class="cls-4" d="M630.88,203.17c-4.27-3.02-10.24-6.11-17.92-9.24-8.43-3.35-14.21-6-17.35-7.95-3.14-1.95-4.7-4.48-4.7-7.62s1.54-5.54,4.62-7.21c3.08-1.68,7.22-2.51,12.4-2.51,7.74,0,15.45,1.61,23.13,4.83,2.65,1.11,5.57-.84,5.57-3.71v-16.19c0-1.58-.91-3.05-2.37-3.68-4.25-1.83-8.65-3.2-13.2-4.11-5.41-1.08-11.57-1.62-18.48-1.62-8.43,0-15.89,1.41-22.38,4.22-6.49,2.81-11.54,6.76-15.16,11.84-3.62,5.08-5.43,10.86-5.43,17.35,0,7.89,2.38,14.54,7.13,19.94,4.76,5.41,12.38,10.32,22.86,14.75,5.94,2.49,10.32,4.43,13.13,5.84,2.81,1.41,4.95,2.95,6.4,4.62,1.46,1.68,2.19,3.65,2.19,5.92,0,3.03-1.35,5.35-4.05,6.97-2.7,1.62-6.7,2.43-12,2.43-5.73,0-11.76-.76-18.08-2.27-4.34-1.04-8.56-2.43-12.67-4.18-2.64-1.13-5.57,.85-5.57,3.72v16.9c0,1.59,.93,3.04,2.38,3.69,4.13,1.84,9.12,3.32,14.97,4.44,7.03,1.35,14.11,2.03,21.24,2.03,15.13,0,26.51-2.95,34.13-8.84,7.62-5.89,11.43-14.08,11.43-24.56,0-6.16-.97-11.24-2.92-15.24-1.95-4-5.06-7.51-9.32-10.54Z"/>
    <path class="cls-4" d="M692.96,170.74h43.66c2.23,0,4.03-1.81,4.03-4.03v-16.1c0-2.23-1.8-4.03-4.03-4.03h-72.36c-2.23,0-4.03,1.8-4.03,4.03v105.27c0,2.23,1.8,4.03,4.03,4.03h72.36c2.23,0,4.03-1.8,4.03-4.03v-16.1c0-2.23-1.8-4.03-4.03-4.03h-43.66c-2.23,0-4.03-1.8-4.03-4.03v-13.18c0-2.23,1.8-4.03,4.03-4.03h29.72c2.23,0,4.03-1.81,4.03-4.03v-14.47c0-2.23-1.8-4.03-4.03-4.03h-29.72c-2.23,0-4.03-1.8-4.03-4.03v-13.18c0-2.23,1.8-4.03,4.03-4.03Z"/>
    <g>
      <path class="cls-1" d="M740.71,185.03c8.39-1.87,14.67-9.38,14.67-18.32v-16.1c0-10.37-8.4-18.77-18.77-18.77h-12.5c-1.19,0-2.09-1.12-1.78-2.27,1.21-4.42,.76-9.17-1.39-13.41l-10.5-20.66c-.37-.73-.2-1.61,.4-2.18,3.04-2.86,5.69-6.11,7.93-9.74,5.12-8.28,7.71-18.14,7.71-29.32,0-16.86-5.45-30.27-16.19-39.86-10.27-9.15-24.07-13.79-41.03-13.79h-46.88c-4.05,0-7.81,1.29-10.88,3.48-.62,.44-1.46,.44-2.08,0-3.07-2.19-6.83-3.48-10.88-3.48h-72.36c-10.37,0-18.77,8.4-18.77,18.77,0,3.16-2.56,5.72-5.72,5.72h-15.04c-3.16,0-5.72-2.56-5.72-5.72h0c0-10.37-8.4-18.77-18.77-18.77h-20.64c-10.37,0-18.77,8.4-18.77,18.77,0,3.16-2.56,5.72-5.72,5.72h-15.47c-3.16,0-5.72-2.56-5.72-5.72h0c0-10.37-8.4-18.77-18.77-18.77h-20.64c-6.32,0-11.91,3.15-15.31,7.96-.75,1.06-2.28,1.06-3.03,0-3.4-4.81-8.99-7.96-15.31-7.96h-20.64c-3.99,0-7.7,1.26-10.74,3.4-.62,.43-1.44,.43-2.06,0-3.05-2.14-6.75-3.4-10.74-3.4h-69.41c-10.37,0-18.77,8.4-18.77,18.77V124.67c0,1.69,.23,3.32,.65,4.88,.31,1.16-.57,2.3-1.77,2.3-10.37,0-18.77,8.4-18.77,18.77v105.27c0,10.37,8.4,18.77,18.77,18.77h20.64c10.37,0,18.77-8.4,18.77-18.77v-9.13c0-1.56,1.26-2.82,2.82-2.82h9.1c1.68,0,3.04,1.36,3.04,3.04v8.91c0,10.37,8.4,18.77,18.77,18.77h21.74c9.76,0,17.66-7.91,17.66-17.66v-4c0-1.93,2.39-2.81,3.65-1.35,5.66,6.56,12.45,12,20.32,16.23,11.37,6.12,24.16,9.22,38.03,9.22s26.5-3.1,37.87-9.22c10.45-5.62,18.99-13.37,25.46-23.06,.36-.54,.96-.87,1.62-.87h1.46c.74,0,1.4,.42,1.73,1.07,2.57,5.02,5.8,9.62,9.73,13.77,11.5,12.15,28.08,18.31,49.29,18.31s37.77-6.13,49.21-18.23c.59-.63,1.17-1.26,1.73-1.91,.93-1.08,2.69-.71,3.1,.65,1.55,5.15,5.26,9.49,10.32,11.74,5.14,2.29,11.26,4.12,18.19,5.46,7.91,1.52,15.99,2.29,24.02,2.29,18.66,0,32.78-3.9,43.15-11.92,1.13-.87,2.2-1.78,3.21-2.73,.97-.91,2.52-.56,3.03,.67,2.83,6.77,9.51,11.55,17.3,11.55h72.36c10.37,0,18.77-8.4,18.77-18.77v-16.1c0-8.94-6.29-16.45-14.67-18.32-1.16-.26-1.78-1.53-1.25-2.59,1.27-2.53,1.98-5.38,1.98-8.39v-14.47c0-3.01-.71-5.86-1.98-8.39-.53-1.06,.09-2.33,1.25-2.59Z"/>
      <g>
        <path class="cls-4" d="M209.2,128.7h20.64c2.23,0,4.03-1.81,4.03-4.03v-37.34c0-2.23,1.8-4.03,4.03-4.03h28.24c2.23,0,4.03-1.8,4.03-4.03v-14.47c0-2.23-1.8-4.03-4.03-4.03h-28.24c-2.23,0-4.03-1.8-4.03-4.03v-13.18c0-2.23,1.8-4.03,4.03-4.03h40.71c2.23,0,4.03-1.8,4.03-4.03V19.39c0-2.23-1.8-4.03-4.03-4.03h-69.41c-2.23,0-4.03,1.81-4.03,4.03V124.66c0,2.23,1.8,4.03,4.03,4.03Z"/>
        <path class="cls-4" d="M302.15,15.36h20.64c2.23,0,4.03,1.81,4.03,4.03V124.67c0,2.23-1.81,4.03-4.03,4.03h-20.64c-2.23,0-4.03-1.81-4.03-4.03V19.39c0-2.23,1.81-4.03,4.03-4.03Z"/>
        <path class="cls-4" d="M356.44,128.7h61.08c2.23,0,4.03-1.81,4.03-4.03v-16.1c0-2.23-1.8-4.03-4.03-4.03h-32.38c-2.23,0-4.03-1.8-4.03-4.03V19.39c0-2.23-1.8-4.03-4.03-4.03h-20.64c-2.23,0-4.03,1.81-4.03,4.03V124.66c0,2.23,1.8,4.03,4.03,4.03Z"/>
        <path class="cls-4" d="M502.62,128.7c2.23,0,4.03-1.81,4.03-4.03v-16.1c0-2.23-1.8-4.03-4.03-4.03h-32.38c-2.23,0-4.03-1.8-4.03-4.03V19.39c0-2.23-1.8-4.03-4.03-4.03h-20.64c-2.23,0-4.03,1.81-4.03,4.03V124.66c0,2.23,1.8,4.03,4.03,4.03h61.08Z"/>
        <path class="cls-4" d="M526.2,128.7h69.41c2.23,0,4.03-1.81,4.03-4.03v-16.1c0-2.23-1.8-4.03-4.03-4.03h-40.71c-2.23,0-4.03-1.8-4.03-4.03v-13.18c0-2.23,1.8-4.03,4.03-4.03h29.72c2.23,0,4.03-1.8,4.03-4.03v-14.47c0-2.23-1.8-4.03-4.03-4.03h-29.72c-2.23,0-4.03-1.8-4.03-4.03v-13.18c0-2.23,1.8-4.03,4.03-4.03h43.66c2.23,0,4.03-1.8,4.03-4.03V19.39c0-2.23-1.8-4.03-4.03-4.03h-72.36c-2.23,0-4.03,1.81-4.03,4.03V124.66c0,2.23,1.8,4.03,4.03,4.03Z"/>
        <path class="cls-4" d="M664.4,95.4l15.76,31.09c.69,1.36,2.08,2.21,3.6,2.21h20.46c3.01,0,4.96-3.18,3.59-5.86l-15.29-30.09c-.97-1.9-.3-4.26,1.56-5.3,5.08-2.84,9.14-6.71,12.16-11.61,3.67-5.94,5.51-13.13,5.51-21.56,0-12.54-3.76-22.16-11.27-28.86-7.51-6.7-17.92-10.05-31.21-10.05h-46.88c-2.23,0-4.03,1.81-4.03,4.03V124.66c0,2.23,1.8,4.03,4.03,4.03h20.64c2.23,0,4.03-1.81,4.03-4.03v-27.45c0-2.23,1.8-4.03,4.03-4.03h9.71c1.52,0,2.91,.85,3.6,2.21Zm-17.33-30.4v-21.45c0-2.23,1.8-4.03,4.03-4.03h13.16c5.84,0,10.3,1.05,13.38,3.16,3.08,2.11,4.62,5.98,4.62,11.59s-1.57,9.22-4.7,11.43c-3.14,2.22-7.57,3.32-13.3,3.32h-13.16c-2.23,0-4.03-1.8-4.03-4.03Z"/>
        <path class="cls-4" d="M283.07,146.58h-20.64c-2.23,0-4.03,1.8-4.03,4.03v35.71c0,2.23-1.8,4.03-4.03,4.03h-36.36c-2.23,0-4.03-1.8-4.03-4.03v-35.71c0-2.23-1.8-4.03-4.03-4.03h-20.64c-2.23,0-4.03,1.8-4.03,4.03v105.27c0,2.23,1.8,4.03,4.03,4.03h20.64c2.23,0,4.03-1.8,4.03-4.03v-37.66c0-2.23,1.8-4.03,4.03-4.03h36.36c2.23,0,4.03,1.8,4.03,4.03v37.66c0,2.23,1.8,4.03,4.03,4.03h20.64c2.23,0,4.03-1.8,4.03-4.03v-105.27c0-2.23-1.8-4.03-4.03-4.03Z"/>
        <path class="cls-4" d="M394.72,151.61c-9.24-4.97-19.54-7.46-30.89-7.46s-21.81,2.49-31.05,7.46c-9.24,4.97-16.54,11.95-21.89,20.92-5.35,8.97-8.03,19.24-8.03,30.81s2.68,21.81,8.03,30.73c5.35,8.92,12.65,15.86,21.89,20.84,9.24,4.97,19.59,7.46,31.05,7.46s21.65-2.49,30.89-7.46c9.24-4.97,16.51-11.92,21.81-20.84,5.3-8.92,7.95-19.16,7.95-30.73s-2.65-21.83-7.95-30.81c-5.3-8.97-12.57-15.94-21.81-20.92Zm-3.81,68.75c-2.81,4.86-6.59,8.59-11.35,11.19-4.76,2.59-10,3.89-15.73,3.89s-11.16-1.3-15.97-3.89c-4.81-2.59-8.59-6.32-11.35-11.19-2.76-4.86-4.13-10.54-4.13-17.02s1.38-12.13,4.13-16.94c2.76-4.81,6.51-8.54,11.27-11.19,4.76-2.65,10.11-3.97,16.05-3.97s11.13,1.32,15.89,3.97c4.76,2.65,8.51,6.38,11.27,11.19,2.76,4.81,4.13,10.46,4.13,16.94s-1.41,12.16-4.22,17.02Z"/>
        <path class="cls-4" d="M538.36,146.58h-20.64c-2.23,0-4.03,1.8-4.03,4.03v62.12c0,7.57-2,13.3-6,17.19-4,3.89-9.57,5.84-16.7,5.84s-12.73-1.95-16.78-5.84c-4.05-3.89-6.08-9.62-6.08-17.19v-62.12c0-2.23-1.8-4.03-4.03-4.03h-20.64c-2.23,0-4.03,1.8-4.03,4.03v61.8c0,15.03,4.32,27.11,12.97,36.24,8.65,9.13,21.51,13.7,38.59,13.7s29.92-4.54,38.51-13.62c8.59-9.08,12.89-21.18,12.89-36.32v-61.8c0-2.23-1.8-4.03-4.03-4.03Z"/>
        <path class="cls-4" d="M630.88,203.17c-4.27-3.02-10.24-6.11-17.92-9.24-8.43-3.35-14.21-6-17.35-7.95-3.14-1.95-4.7-4.48-4.7-7.62s1.54-5.54,4.62-7.21c3.08-1.68,7.22-2.51,12.4-2.51,7.74,0,15.45,1.61,23.13,4.83,2.65,1.11,5.57-.84,5.57-3.71v-16.19c0-1.58-.91-3.05-2.37-3.68-4.25-1.83-8.65-3.2-13.2-4.11-5.41-1.08-11.57-1.62-18.48-1.62-8.43,0-15.89,1.41-22.38,4.22-6.49,2.81-11.54,6.76-15.16,11.84-3.62,5.08-5.43,10.86-5.43,17.35,0,7.89,2.38,14.54,7.13,19.94,4.76,5.41,12.38,10.32,22.86,14.75,5.94,2.49,10.32,4.43,13.13,5.84,2.81,1.41,4.95,2.95,6.4,4.62,1.46,1.68,2.19,3.65,2.19,5.92,0,3.03-1.35,5.35-4.05,6.97-2.7,1.62-6.7,2.43-12,2.43-5.73,0-11.76-.76-18.08-2.27-4.34-1.04-8.56-2.43-12.67-4.18-2.64-1.13-5.57,.85-5.57,3.72v16.9c0,1.59,.93,3.04,2.38,3.69,4.13,1.84,9.12,3.32,14.97,4.44,7.03,1.35,14.11,2.03,21.24,2.03,15.13,0,26.51-2.95,34.13-8.84,7.62-5.89,11.43-14.08,11.43-24.56,0-6.16-.97-11.24-2.92-15.24-1.95-4-5.06-7.51-9.32-10.54Z"/>
        <path class="cls-4" d="M692.96,170.74h43.66c2.23,0,4.03-1.81,4.03-4.03v-16.1c0-2.23-1.8-4.03-4.03-4.03h-72.36c-2.23,0-4.03,1.8-4.03,4.03v105.27c0,2.23,1.8,4.03,4.03,4.03h72.36c2.23,0,4.03-1.8,4.03-4.03v-16.1c0-2.23-1.8-4.03-4.03-4.03h-43.66c-2.23,0-4.03-1.8-4.03-4.03v-13.18c0-2.23,1.8-4.03,4.03-4.03h29.72c2.23,0,4.03-1.81,4.03-4.03v-14.47c0-2.23-1.8-4.03-4.03-4.03h-29.72c-2.23,0-4.03-1.8-4.03-4.03v-13.18c0-2.23,1.8-4.03,4.03-4.03Z"/>
      </g>
    </g>
  </g>
</svg>