<?xml version="1.0" standalone="no"?>
<!DOCTYPE svg PUBLIC "-//W3C//DTD SVG 20010904//EN"
 "http://www.w3.org/TR/2001/REC-SVG-20010904/DTD/svg10.dtd">
<svg version="1.0" xmlns="http://www.w3.org/2000/svg"
 width="1238.000000pt" height="1238.000000pt" viewBox="0 0 1238.000000 1238.000000"
 preserveAspectRatio="xMidYMid meet">
<metadata>
Created by potrace 1.14, written by Peter Selinger 2001-2017
</metadata>
<g transform="translate(0.000000,1238.000000) scale(0.100000,-0.100000)"
fill="#000000" stroke="none">
<path d="M651 9274 c-97 -34 -183 -114 -229 -212 l-27 -57 -2 -1165 -2 -1164
-68 -12 c-127 -21 -232 -95 -290 -206 l-28 -53 0 -1165 0 -1165 27 -56 c23
-45 100 -127 418 -445 214 -214 407 -399 428 -411 79 -47 143 -55 420 -51 286
4 315 10 406 79 102 79 146 173 154 327 l5 104 226 -225 c156 -155 240 -231
272 -246 78 -36 146 -43 418 -39 294 4 324 11 418 93 78 68 113 147 122 271 9
141 14 142 144 17 206 -198 433 -320 727 -390 89 -21 137 -26 315 -30 182 -5
226 -2 330 15 217 37 421 118 604 239 100 67 263 221 333 315 l51 68 191 -187
c281 -277 418 -357 723 -425 136 -30 546 -33 692 -5 250 49 450 147 624 307
l58 53 102 -100 c56 -55 120 -109 142 -121 106 -53 285 -104 486 -139 150 -26
614 -26 744 0 207 41 394 120 511 216 l61 49 83 -83 c94 -94 165 -138 255
-155 43 -8 281 -10 825 -8 l765 3 60 24 c84 34 184 134 213 214 20 53 22 76
22 302 0 321 3 313 -168 487 l-124 127 12 68 c8 44 11 132 8 253 -4 158 -8
192 -25 236 -12 28 -18 56 -14 62 4 6 27 18 51 27 103 37 175 99 227 197 l28
53 0 270 0 270 -29 60 c-25 51 -86 117 -420 452 -310 312 -396 404 -419 448
l-28 56 57 62 c73 81 146 193 183 281 118 284 118 648 0 932 -62 150 -110 206
-518 617 -212 214 -422 416 -465 448 -145 110 -314 180 -516 214 -81 13 -185
15 -695 13 l-600 -3 -66 -34 -66 -34 -69 34 -69 34 -825 0 -825 0 -60 -29
c-122 -60 -199 -172 -214 -312 -14 -117 -33 -133 -160 -134 l-95 0 -210 208
c-169 167 -223 214 -271 238 l-60 29 -310 0 -310 0 -57 -27 c-121 -57 -203
-171 -218 -306 -14 -125 -34 -142 -175 -142 l-101 0 -209 210 c-162 163 -221
216 -264 238 l-56 27 -310 0 -310 0 -67 -33 c-42 -21 -83 -51 -111 -82 -25
-28 -48 -50 -53 -50 -4 0 -33 25 -65 55 -32 31 -84 68 -116 83 l-58 27 -310 0
-310 0 -65 -33 -65 -33 -64 33 -65 33 -785 2 c-690 2 -791 0 -830 -13z m1553
-305 l26 -20 0 -198 c0 -188 -1 -199 -21 -217 -20 -18 -46 -19 -465 -24 -408
-5 -445 -6 -461 -23 -16 -15 -18 -40 -21 -182 l-3 -165 30 -30 29 -30 301 0
c165 0 311 -4 324 -9 37 -14 47 -59 47 -211 0 -143 -10 -194 -40 -210 -11 -6
-144 -10 -325 -10 l-307 0 -29 -29 -29 -29 0 -400 c0 -379 -1 -401 -19 -423
l-19 -24 -242 0 -242 0 -19 24 c-18 23 -19 55 -19 1098 0 741 3 1080 11 1094
6 11 20 24 32 29 12 5 340 9 728 9 700 1 707 1 733 -20z m876 6 c20 -10 31
-25 35 -48 3 -17 4 -510 3 -1094 -3 -1004 -4 -1063 -21 -1080 -16 -16 -43 -18
-250 -21 -225 -3 -234 -2 -260 18 l-27 21 0 1089 0 1089 26 20 c25 20 39 21
246 21 175 0 225 -3 248 -15z m1094 -6 l26 -20 0 -830 c0 -915 -2 -886 60
-908 22 -7 145 -11 371 -11 326 0 340 -1 359 -20 19 -19 20 -33 20 -210 0
-190 0 -191 -25 -216 l-25 -24 -639 2 c-599 3 -641 4 -658 21 -17 17 -18 76
-21 1080 -1 584 0 1077 3 1094 10 57 32 62 281 63 209 0 223 -1 248 -21z
m1703 -3 l28 -24 3 -845 2 -844 26 -24 26 -24 360 -5 c341 -5 360 -6 374 -24
11 -16 14 -62 14 -212 l0 -193 -26 -20 c-26 -21 -35 -21 -650 -21 -435 0 -630
3 -647 11 -14 6 -30 22 -36 36 -16 34 -16 2132 0 2167 6 13 21 29 33 34 12 6
112 11 243 11 221 1 222 1 250 -23z m2734 -5 c17 -21 19 -41 19 -208 0 -101
-4 -193 -10 -203 -20 -37 -59 -40 -526 -40 l-453 0 -20 -26 c-19 -25 -21 -40
-21 -191 0 -161 0 -164 25 -188 l24 -25 324 0 c313 0 325 -1 351 -21 l26 -20
0 -179 0 -179 -26 -20 c-26 -20 -38 -21 -341 -21 -329 0 -361 -4 -377 -45 -3
-9 -6 -88 -6 -175 0 -154 1 -160 24 -187 l24 -28 447 -5 c427 -5 447 -6 461
-24 11 -16 14 -61 14 -208 0 -187 0 -189 -25 -213 l-24 -25 -715 0 -715 0 -28
24 -28 24 0 1082 0 1082 28 24 29 24 750 -2 750 -3 19 -24z m1495 18 c210 -23
365 -86 483 -195 114 -106 177 -222 208 -388 19 -102 13 -332 -12 -421 -42
-154 -141 -295 -268 -383 -79 -55 -97 -75 -97 -112 0 -11 72 -162 160 -334
105 -205 160 -323 160 -344 0 -21 -8 -37 -26 -51 -25 -20 -39 -21 -250 -21
-217 0 -224 1 -248 23 -14 12 -98 165 -186 340 -89 174 -171 324 -183 332 -16
11 -51 15 -143 15 -67 0 -130 -3 -139 -6 -41 -16 -45 -49 -45 -357 0 -275 -1
-296 -19 -318 l-19 -24 -242 0 -242 0 -19 24 c-18 23 -19 55 -19 1098 0 741 3
1080 11 1094 6 11 20 24 32 29 32 13 988 12 1103 -1z m-6026 -2584 c290 -47
535 -178 713 -383 182 -209 277 -476 277 -777 0 -585 -362 -1029 -940 -1152
-121 -25 -410 -25 -535 1 -492 102 -840 450 -926 926 -22 117 -17 374 8 490
103 470 457 804 943 890 132 23 332 25 460 5z m4821 1 c176 -24 379 -88 399
-126 6 -11 10 -102 10 -209 l0 -190 -26 -20 c-34 -27 -42 -26 -128 5 -137 50
-216 65 -361 71 -112 4 -153 2 -205 -11 -126 -32 -190 -94 -190 -184 0 -110
78 -167 416 -305 381 -156 533 -278 597 -482 19 -60 22 -92 21 -220 0 -139 -2
-155 -28 -225 -86 -229 -276 -365 -586 -421 -115 -21 -477 -18 -615 4 -205 34
-385 89 -417 128 -16 19 -18 45 -18 216 0 193 0 194 25 218 30 30 49 31 117 4
242 -97 586 -140 747 -94 120 35 182 126 150 222 -30 93 -88 134 -350 249
-219 96 -325 153 -423 226 -121 91 -205 215 -237 348 -16 72 -16 220 0 290 63
261 297 449 630 505 103 18 343 18 472 1z m-8065 -50 c18 -14 19 -33 24 -411
l5 -397 28 -24 28 -24 395 0 395 0 24 25 25 24 0 384 c0 374 1 385 21 411 l20
26 240 0 c226 0 240 -1 259 -20 20 -20 20 -33 20 -1105 0 -1072 0 -1085 -20
-1105 -19 -19 -33 -20 -255 -20 l-236 0 -24 25 -25 24 0 406 0 406 -25 24 -24
25 -399 0 -399 0 -24 -26 -24 -26 -5 -413 c-5 -399 -6 -415 -25 -429 -16 -13
-61 -15 -253 -16 l-233 0 -24 25 -25 24 0 1074 c0 1072 0 1074 21 1101 l20 26
238 0 c189 0 241 -3 257 -14z m5080 0 c18 -14 19 -36 25 -718 6 -755 4 -730
58 -835 44 -87 123 -152 231 -189 83 -29 272 -27 360 4 125 43 208 129 252
260 22 66 22 80 27 765 6 677 7 699 25 713 16 11 68 14 257 14 l238 0 20 -26
c21 -26 21 -34 21 -693 0 -736 -4 -795 -61 -974 -52 -163 -160 -320 -283 -414
-182 -138 -440 -203 -751 -190 -300 13 -502 88 -667 245 -157 150 -241 323
-273 562 -11 82 -15 254 -15 771 0 659 0 667 21 693 l20 26 238 0 c189 0 241
-3 257 -14z m5451 -8 c22 -21 23 -26 23 -210 0 -187 0 -189 -25 -213 l-24 -25
-466 0 -466 0 -24 -25 c-25 -24 -25 -27 -25 -188 0 -151 2 -166 21 -191 l20
-26 313 0 c323 0 367 -5 386 -40 6 -10 10 -95 10 -187 0 -130 -3 -174 -14
-189 -14 -18 -32 -19 -349 -24 l-335 -5 -26 -24 c-26 -24 -26 -25 -26 -187 0
-89 3 -170 6 -179 17 -43 39 -45 519 -45 l456 0 24 -25 c25 -24 25 -26 25
-208 0 -171 -1 -186 -21 -211 l-20 -26 -755 0 c-737 0 -754 0 -774 20 -11 11
-22 30 -25 42 -3 13 -4 502 -3 1086 l3 1064 24 19 c22 18 50 19 774 19 l751 0
23 -22z"/>
<path d="M9583 8510 c-61 -19 -63 -29 -63 -293 0 -144 4 -246 10 -258 22 -40
61 -49 209 -49 280 0 401 37 462 143 22 38 24 53 24 162 0 105 -3 125 -22 162
-55 102 -142 132 -402 138 -111 3 -199 1 -218 -5z"/>
<path d="M3710 5865 c-200 -45 -378 -202 -441 -389 -86 -255 -28 -540 145
-711 121 -120 262 -175 451 -175 185 0 322 55 445 179 131 131 181 261 181
466 0 202 -51 335 -176 461 -124 124 -240 173 -425 180 -78 2 -136 -1 -180
-11z"/>
</g>
</svg>
